<svg width="204" height="76" viewBox="0 0 204 76" fill="none" xmlns="http://www.w3.org/2000/svg">
<g opacity="0.8" filter="url(#filter0_b_2101_483)">
<g clip-path="url(#clip0_2101_483)">
<path d="M92.7662 34.5664L92.7548 36.7168L82.5374 36.7168L82.5374 20.3325L92.7548 20.3325L92.7548 22.483L85.2113 22.483L85.2113 27.421L91.2416 27.421L91.2416 29.5032L85.2113 29.5032L85.2113 34.5664L92.7662 34.5664ZM93.9143 28.8319L99.6829 28.8319L99.6829 30.9027L93.9143 30.9027L93.9143 28.8319ZM113.208 33.0645C113.352 33.0645 113.477 33.1214 113.583 33.2351L114.641 34.3843C113.974 35.1884 113.155 35.8104 112.184 36.2503C111.213 36.6827 110.052 36.8988 108.702 36.8988C107.504 36.8988 106.419 36.694 105.448 36.2844C104.485 35.8672 103.662 35.2908 102.979 34.555C102.296 33.8116 101.769 32.9279 101.398 31.9039C101.033 30.8799 100.851 29.7535 100.851 28.5247C100.851 27.2958 101.045 26.1694 101.432 25.1454C101.826 24.1138 102.376 23.2301 103.081 22.4943C103.794 21.751 104.644 21.1745 105.63 20.7649C106.624 20.3553 107.716 20.1505 108.907 20.1505C110.09 20.1505 111.133 20.3439 112.036 20.7308C112.946 21.11 113.735 21.6182 114.403 22.2554L113.526 23.4956C113.466 23.579 113.394 23.6511 113.31 23.7118C113.227 23.7725 113.113 23.8028 112.969 23.8028C112.817 23.8028 112.643 23.7345 112.446 23.598C112.256 23.4539 112.009 23.2984 111.706 23.1315C111.41 22.957 111.035 22.8015 110.58 22.665C110.132 22.5209 109.571 22.4488 108.896 22.4488C108.114 22.4488 107.397 22.5854 106.745 22.8584C106.093 23.1315 105.531 23.5297 105.061 24.0531C104.591 24.5765 104.223 25.2137 103.958 25.9646C103.7 26.7156 103.571 27.5689 103.571 28.5247C103.571 29.488 103.707 30.3489 103.98 31.1075C104.253 31.8584 104.629 32.4956 105.107 33.019C105.585 33.5348 106.146 33.9292 106.791 34.2023C107.435 34.4753 108.129 34.6119 108.873 34.6119C109.328 34.6119 109.734 34.5891 110.09 34.5436C110.454 34.4905 110.788 34.4109 111.092 34.3047C111.395 34.1909 111.679 34.0506 111.945 33.8837C112.218 33.7168 112.487 33.512 112.753 33.2693C112.904 33.1327 113.056 33.0645 113.208 33.0645ZM126.027 34.5664L126.016 36.7168L115.798 36.7168L115.798 20.3325L126.016 20.3325L126.016 22.483L118.472 22.483L118.472 27.421L124.503 27.421L124.503 29.5032L118.472 29.5032L118.472 34.5664L126.027 34.5664ZM137.233 34.4867L137.233 36.7168L127.767 36.7168L127.767 20.3325L130.429 20.3325L130.429 34.4867L137.233 34.4867ZM147.846 34.4867L147.846 36.7168L138.38 36.7168L138.38 20.3325L141.042 20.3325L141.042 34.4867L147.846 34.4867Z" fill="#F1E7FF"/>
<path d="M84.2661 58.6055L82.3754 58.6055L82.3754 44.6392L84.2661 44.6392L84.2661 58.6055ZM88.9674 58.6055L87.0767 58.6055L87.0767 44.6392L88.9674 44.6392L88.9674 58.6055ZM101.222 46.2278L96.6998 46.2278L96.6998 58.6055L94.8188 58.6055L94.8188 46.2278L90.2868 46.2278L90.2868 44.6392L101.222 44.6392L101.222 46.2278ZM117.512 51.8903L117.512 57.2507C116.811 57.7575 116.06 58.1377 115.261 58.3911C114.468 58.638 113.598 58.7614 112.649 58.7614C111.525 58.7614 110.511 58.5892 109.608 58.2449C108.705 57.894 107.932 57.4067 107.289 56.7829C106.652 56.1527 106.161 55.399 105.817 54.5218C105.473 53.6447 105.3 52.6798 105.3 51.6272C105.3 50.5616 105.466 49.5902 105.798 48.7131C106.135 47.8359 106.613 47.0855 107.23 46.4617C107.847 45.8314 108.598 45.3441 109.482 44.9998C110.365 44.6554 111.353 44.4832 112.444 44.4832C112.997 44.4832 113.51 44.5255 113.984 44.6099C114.459 44.6879 114.897 44.8048 115.3 44.9608C115.703 45.1102 116.077 45.2954 116.421 45.5163C116.765 45.7307 117.087 45.9744 117.386 46.2473L116.85 47.105C116.765 47.2349 116.655 47.3194 116.518 47.3584C116.388 47.3908 116.242 47.3584 116.08 47.2609C115.924 47.1699 115.745 47.0595 115.544 46.9295C115.342 46.7996 115.095 46.6761 114.803 46.5592C114.517 46.4357 114.176 46.3318 113.78 46.2473C113.39 46.1628 112.925 46.1206 112.386 46.1206C111.6 46.1206 110.888 46.2505 110.252 46.5104C109.615 46.7638 109.072 47.1309 108.624 47.6118C108.176 48.0861 107.831 48.6643 107.591 49.3466C107.35 50.0223 107.23 50.7825 107.23 51.6272C107.23 52.5043 107.354 53.2905 107.601 53.9858C107.854 54.6745 108.211 55.2625 108.673 55.7498C109.14 56.2306 109.706 56.5978 110.368 56.8512C111.031 57.1046 111.775 57.2313 112.6 57.2313C113.25 57.2313 113.825 57.1598 114.325 57.0168C114.832 56.8674 115.326 56.6627 115.807 56.4028L115.807 53.3328L113.633 53.3328C113.51 53.3328 113.409 53.297 113.331 53.2256C113.26 53.1541 113.224 53.0664 113.224 52.9624L113.224 51.8903L117.512 51.8903ZM127.182 48.7326L127.182 58.6055L126.149 58.6055C125.902 58.6055 125.747 58.4853 125.682 58.2449L125.545 57.1825C125.116 57.6568 124.635 58.0402 124.103 58.3326C123.57 58.6185 122.959 58.7614 122.27 58.7614C121.731 58.7614 121.254 58.6737 120.838 58.4983C120.428 58.3163 120.084 58.0629 119.805 57.7381C119.525 57.4132 119.314 57.0201 119.171 56.5588C119.035 56.0974 118.966 55.5874 118.966 55.0286L118.966 48.7326L120.701 48.7326L120.701 55.0286C120.701 55.7758 120.87 56.3541 121.208 56.7634C121.552 57.1728 122.075 57.3774 122.777 57.3774C123.291 57.3774 123.768 57.2572 124.21 57.0168C124.658 56.7699 125.071 56.4321 125.448 56.0032L125.448 48.7326L127.182 48.7326ZM142.787 48.7326L139.59 58.6055L138.216 58.6055C138.047 58.6055 137.93 58.495 137.865 58.2741L135.682 51.5785C135.63 51.429 135.588 51.2796 135.555 51.1301C135.523 50.9742 135.49 50.8215 135.458 50.6721C135.425 50.8215 135.393 50.9742 135.36 51.1301C135.328 51.2796 135.285 51.4323 135.233 51.5882L133.011 58.2741C132.953 58.495 132.823 58.6055 132.621 58.6055L131.315 58.6055L128.119 48.7326L129.483 48.7326C129.62 48.7326 129.733 48.7683 129.824 48.8398C129.922 48.9112 129.987 48.9957 130.019 49.0932L131.91 55.4477C132.02 55.9155 132.108 56.3573 132.173 56.7732C132.232 56.5588 132.29 56.3411 132.349 56.1202C132.414 55.8993 132.482 55.6751 132.553 55.4477L134.639 49.0542C134.671 48.9567 134.727 48.8755 134.805 48.8105C134.889 48.7456 134.99 48.7131 135.107 48.7131L135.867 48.7131C135.997 48.7131 136.104 48.7456 136.189 48.8105C136.273 48.8755 136.332 48.9567 136.364 49.0542L138.401 55.4477C138.472 55.6751 138.537 55.8993 138.596 56.1202C138.654 56.3411 138.71 56.5588 138.762 56.7732C138.794 56.5588 138.833 56.3444 138.879 56.1299C138.93 55.909 138.986 55.6816 139.044 55.4477L140.974 49.0932C141.006 48.9892 141.068 48.9047 141.159 48.8398C141.25 48.7683 141.357 48.7326 141.481 48.7326L142.787 48.7326ZM148.95 54.1612C148.151 54.1872 147.469 54.2522 146.904 54.3561C146.345 54.4536 145.887 54.5835 145.53 54.746C145.179 54.9084 144.922 55.1001 144.76 55.321C144.604 55.5419 144.526 55.7888 144.526 56.0617C144.526 56.3216 144.568 56.5458 144.652 56.7342C144.737 56.9226 144.851 57.0786 144.993 57.202C145.143 57.319 145.315 57.4067 145.51 57.4652C145.711 57.5171 145.926 57.5431 146.153 57.5431C146.459 57.5431 146.738 57.5139 146.991 57.4554C147.245 57.3904 147.482 57.2995 147.703 57.1825C147.93 57.0656 148.145 56.9259 148.346 56.7634C148.554 56.601 148.756 56.4158 148.95 56.2079L148.95 54.1612ZM143.346 50.1263C143.892 49.6 144.48 49.2069 145.11 48.947C145.741 48.6871 146.439 48.5571 147.206 48.5571C147.758 48.5571 148.249 48.6481 148.678 48.83C149.106 49.012 149.467 49.2654 149.759 49.5902C150.052 49.9151 150.273 50.3082 150.422 50.7695C150.572 51.2308 150.646 51.7376 150.646 52.2899L150.646 58.6055L149.876 58.6055C149.707 58.6055 149.577 58.5795 149.486 58.5275C149.396 58.469 149.324 58.3586 149.272 58.1961L149.077 57.2605C148.817 57.5009 148.564 57.7153 148.317 57.9037C148.07 58.0857 147.81 58.2416 147.537 58.3716C147.264 58.495 146.972 58.5892 146.66 58.6542C146.355 58.7257 146.014 58.7614 145.637 58.7614C145.253 58.7614 144.893 58.7094 144.555 58.6055C144.217 58.495 143.921 58.3326 143.668 58.1182C143.421 57.9037 143.223 57.6341 143.073 57.3092C142.931 56.9779 142.859 56.588 142.859 56.1397C142.859 55.7498 142.966 55.3762 143.181 55.0189C143.395 54.655 143.743 54.3334 144.224 54.054C144.704 53.7746 145.331 53.5472 146.105 53.3718C146.878 53.1898 147.826 53.0859 148.95 53.0599L148.95 52.2899C148.95 51.5232 148.785 50.945 148.453 50.5551C148.122 50.1588 147.638 49.9606 147.001 49.9606C146.572 49.9606 146.212 50.0158 145.919 50.1263C145.633 50.2302 145.383 50.3504 145.169 50.4869C144.961 50.6168 144.779 50.737 144.623 50.8475C144.474 50.9515 144.324 51.0034 144.175 51.0034C144.058 51.0034 143.957 50.9742 143.873 50.9157C143.788 50.8507 143.717 50.7728 143.658 50.6818L143.346 50.1263ZM154.272 50.0483C154.694 49.6 155.162 49.2426 155.675 48.9762C156.188 48.7098 156.78 48.5766 157.449 48.5766C157.988 48.5766 158.462 48.6676 158.872 48.8495C159.288 49.025 159.632 49.2784 159.905 49.6097C160.184 49.9346 160.395 50.3277 160.538 50.789C160.681 51.2503 160.753 51.7604 160.753 52.3192L160.753 58.6055L159.008 58.6055L159.008 52.3192C159.008 51.572 158.836 50.9937 158.492 50.5843C158.154 50.1685 157.637 49.9606 156.942 49.9606C156.429 49.9606 155.948 50.084 155.5 50.3309C155.058 50.5778 154.648 50.9125 154.272 51.3348L154.272 58.6055L152.527 58.6055L152.527 44.2493L154.272 44.2493L154.272 50.0483ZM167.985 54.1612C167.186 54.1872 166.504 54.2522 165.938 54.3561C165.38 54.4536 164.921 54.5835 164.564 54.746C164.213 54.9084 163.957 55.1001 163.794 55.321C163.638 55.5419 163.56 55.7888 163.56 56.0617C163.56 56.3216 163.602 56.5458 163.687 56.7342C163.771 56.9226 163.885 57.0786 164.028 57.202C164.178 57.319 164.35 57.4067 164.545 57.4652C164.746 57.5171 164.96 57.5431 165.188 57.5431C165.493 57.5431 165.773 57.5139 166.026 57.4554C166.279 57.3904 166.517 57.2995 166.738 57.1825C166.965 57.0656 167.179 56.9259 167.381 56.7634C167.589 56.601 167.79 56.4158 167.985 56.2079L167.985 54.1612ZM162.381 50.1263C162.927 49.6 163.515 49.2069 164.145 48.947C164.775 48.6871 165.474 48.5571 166.24 48.5571C166.793 48.5571 167.283 48.6481 167.712 48.83C168.141 49.012 168.502 49.2654 168.794 49.5902C169.086 49.9151 169.307 50.3082 169.457 50.7695C169.606 51.2308 169.681 51.7376 169.681 52.2899L169.681 58.6055L168.911 58.6055C168.742 58.6055 168.612 58.5795 168.521 58.5275C168.43 58.469 168.359 58.3586 168.307 58.1961L168.112 57.2605C167.852 57.5009 167.598 57.7153 167.352 57.9037C167.105 58.0857 166.845 58.2416 166.572 58.3716C166.299 58.495 166.007 58.5892 165.695 58.6542C165.389 58.7257 165.048 58.7614 164.671 58.7614C164.288 58.7614 163.927 58.7094 163.589 58.6055C163.252 58.495 162.956 58.3326 162.703 58.1182C162.456 57.9037 162.258 57.6341 162.108 57.3092C161.965 56.9779 161.894 56.588 161.894 56.1397C161.894 55.7498 162.001 55.3762 162.215 55.0189C162.43 54.655 162.777 54.3334 163.258 54.054C163.739 53.7746 164.366 53.5472 165.139 53.3718C165.912 53.1898 166.861 53.0859 167.985 53.0599L167.985 52.2899C167.985 51.5232 167.819 50.945 167.488 50.5551C167.157 50.1588 166.673 49.9606 166.036 49.9606C165.607 49.9606 165.246 50.0158 164.954 50.1263C164.668 50.2302 164.418 50.3504 164.203 50.4869C163.996 50.6168 163.814 50.737 163.658 50.8475C163.508 50.9515 163.359 51.0034 163.209 51.0034C163.092 51.0034 162.992 50.9742 162.907 50.9157C162.823 50.8507 162.751 50.7728 162.693 50.6818L162.381 50.1263ZM180.59 58.6055L178.855 58.6055L178.855 50.1848L173.767 50.1848L173.767 56.1104C173.767 56.5263 173.868 56.8349 174.07 57.0363C174.271 57.2378 174.531 57.3385 174.849 57.3385C175.031 57.3385 175.187 57.3157 175.317 57.2702C175.453 57.2183 175.57 57.163 175.668 57.1046C175.765 57.0461 175.847 56.9941 175.912 56.9486C175.983 56.8966 176.045 56.8706 176.097 56.8706C176.188 56.8706 176.269 56.9259 176.34 57.0363L176.847 57.8648C176.548 58.1441 176.188 58.3651 175.765 58.5275C175.343 58.6834 174.908 58.7614 174.459 58.7614C173.68 58.7614 173.079 58.5437 172.656 58.1084C172.24 57.6731 172.033 57.0461 172.033 56.2274L172.033 50.1848L170.844 50.1848C170.74 50.1848 170.652 50.1555 170.58 50.097C170.509 50.0321 170.473 49.9346 170.473 49.8046L170.473 49.1127L172.091 48.8983L172.491 45.8574C172.51 45.76 172.552 45.682 172.617 45.6235C172.689 45.5586 172.78 45.5261 172.89 45.5261L173.767 45.5261L173.767 48.9275L180.59 48.9275L180.59 58.6055ZM181.019 45.5651C181.019 45.734 180.983 45.8932 180.911 46.0426C180.846 46.1856 180.755 46.3123 180.638 46.4227C180.528 46.5332 180.398 46.6209 180.249 46.6859C180.099 46.7508 179.94 46.7833 179.771 46.7833C179.602 46.7833 179.443 46.7508 179.293 46.6859C179.151 46.6209 179.024 46.5332 178.913 46.4227C178.803 46.3123 178.715 46.1856 178.65 46.0426C178.585 45.8932 178.553 45.734 178.553 45.5651C178.553 45.3961 178.585 45.2369 178.65 45.0875C178.715 44.9315 178.803 44.7984 178.913 44.6879C179.024 44.5709 179.151 44.48 179.293 44.415C179.443 44.35 179.602 44.3175 179.771 44.3175C179.94 44.3175 180.099 44.35 180.249 44.415C180.398 44.48 180.528 44.5709 180.638 44.6879C180.755 44.7984 180.846 44.9315 180.911 45.0875C180.983 45.2369 181.019 45.3961 181.019 45.5651Z" fill="#F1E7FF"/>
<path d="M33.4168 33.1304C33.6204 34.5651 34.3263 35.8811 35.4089 36.8443C35.9469 37.2525 36.5602 37.5507 37.2136 37.7217C37.8669 37.8927 38.5476 37.9332 39.2166 37.8409C40.846 37.7148 42.466 37.4882 44.0674 37.1621C46.0568 36.8128 47.9171 35.9393 49.4565 34.6316C50.3015 33.9259 50.9441 33.0086 51.3187 31.9734C51.6933 30.9381 51.7866 29.822 51.5889 28.739C50.8626 24.3815 48.1681 21.4641 44.3954 19.4494C42.3445 18.3757 40.0548 17.8398 37.7404 17.8917C34.743 17.8675 31.8161 18.8011 29.3864 20.5566C26.9566 22.312 25.1509 24.7974 24.2324 27.6508C23.6616 29.5422 23.4856 31.5308 23.7152 33.493C23.9448 35.4553 24.5752 37.3495 25.5673 39.0581C26.4926 40.7447 27.6295 42.3149 28.6487 43.9551C29.6558 45.4283 30.2134 47.1621 30.2539 48.9461C30.3309 49.6406 30.6503 50.2857 31.156 50.7678C31.6617 51.2499 32.3213 51.5382 33.0187 51.5819H42.4497C43.1296 51.5786 43.7881 51.3436 44.3165 50.9156C44.8448 50.4876 45.2114 49.8922 45.3558 49.2278C45.3671 49.1577 45.3909 49.0751 45.4022 48.9699H47.3818C47.3648 49.6015 47.2177 50.2229 46.9497 50.7952C46.6817 51.3674 46.2985 51.8782 45.8242 52.2957C45.5889 52.531 45.3196 52.7176 45.0628 52.9405C44.5246 53.397 43.8348 53.6352 43.1296 53.6079C39.4621 53.5728 35.7834 53.5966 32.1159 53.5842C31.7562 53.5711 31.4057 53.4664 31.0978 53.2799C29.9216 52.6346 29.003 51.6045 28.496 50.3624C28.3521 50.0015 28.2687 49.6193 28.2494 49.2312C28.2013 47.5225 27.6194 45.8717 26.5854 44.5106C25.0468 42.4932 23.7679 40.2904 22.7788 37.954C21.0921 33.2209 21.022 28.5116 23.5639 24.0716C24.835 21.7618 26.6665 19.8088 28.89 18.392C31.1134 16.9753 33.6574 16.1404 36.2879 15.9641C38.4757 15.7162 40.6912 15.9222 42.7958 16.5692C44.9004 17.2162 46.849 18.2903 48.5199 19.7243C51.1657 21.8127 52.9705 24.7846 53.6036 28.0954C53.8325 29.3176 53.7983 30.5745 53.5034 31.7825C53.2084 32.9905 52.6595 34.1218 51.8932 35.101C50.2138 37.2207 48.0582 38.9144 45.6013 40.0445C43.71 41.1088 41.6048 41.7372 39.4395 41.8839C37.339 42.0219 35.2305 41.984 33.1363 41.7707C31.5868 41.5133 30.175 40.7248 29.1431 39.5406C28.1111 38.3563 27.5232 36.85 27.4802 35.2798C27.2642 32.6582 27.7703 30.0275 28.9435 27.6732C30.1167 25.3189 31.9122 23.3307 34.1352 21.9245C35.051 21.2671 36.0919 20.8045 37.1935 20.5651C38.2952 20.3258 39.4342 20.3149 40.5402 20.5331C41.2064 20.6056 41.8457 20.8363 42.4048 21.2058C42.9639 21.5754 43.4266 22.0731 43.7544 22.6577C44.0822 23.2423 44.2656 23.8967 44.2894 24.5664C44.3131 25.2362 44.1765 25.9019 43.8909 26.5082C43.1525 28.24 41.7749 29.6204 40.0447 30.3623C38.1816 31.2877 36.2257 32.0026 34.3037 32.8103C34.014 32.9328 33.718 33.0397 33.4168 33.1304ZM33.1827 31.2322C34.2626 31.0084 35.2958 30.6001 36.237 30.0252C37.2705 29.5001 38.1226 28.6768 38.6828 27.6619C39.2431 26.647 39.4858 25.4873 39.3796 24.3329C39.4098 23.9867 39.3355 23.6394 39.1663 23.3358C38.9972 23.0323 38.7408 22.7864 38.4305 22.63C38.1202 22.4736 37.7701 22.4139 37.4254 22.4585C37.0808 22.5032 36.7574 22.6501 36.4972 22.8804C36.2962 23.0013 36.1111 23.1468 35.9463 23.3136C33.7687 25.4924 33.2641 28.2571 33.1827 31.2322Z" fill="#F1E7FF"/>
<path d="M30.8414 56.926C30.7292 56.9831 30.6057 57.0146 30.4798 57.0183C30.354 57.022 30.2289 56.9978 30.1135 56.9474C29.9981 56.897 29.8953 56.8217 29.8125 56.7268C29.7296 56.632 29.6688 56.52 29.6344 56.3989C29.3004 55.9291 28.7953 55.6093 28.2278 55.5084C27.6603 55.4074 27.0759 55.5335 26.6004 55.8593C25.1706 56.926 25.3561 59.7609 26.2611 60.7236C26.5108 60.9706 26.8182 61.1514 27.1554 61.2496C27.4927 61.3477 27.8491 61.3601 28.1924 61.2856C28.5356 61.2111 28.8549 61.0521 29.1211 60.823C29.3873 60.5938 29.5922 60.3019 29.717 59.9736C29.9511 59.2948 30.3267 59.2236 30.9002 59.3763C30.8801 60.0882 30.6053 60.7692 30.1259 61.2958C29.6464 61.8224 28.994 62.1596 28.2871 62.2462C25.1355 62.5392 24.3391 60.0199 24.433 58.029C24.4462 57.7965 24.4776 57.5654 24.5269 57.3378C24.5963 56.751 24.8284 56.1953 25.197 55.7336C25.5656 55.2718 26.0561 54.9223 26.6129 54.7247C27.1836 54.4855 27.8093 54.4082 28.4211 54.5011C29.0329 54.5941 29.6073 54.8539 30.0812 55.2518C30.3205 55.4601 30.5122 55.7174 30.6434 56.0063C30.7745 56.2951 30.8421 56.6088 30.8414 56.926Z" fill="#F1E7FF"/>
<path d="M38.0542 54.8385H42.319C42.9875 54.8385 43.2918 55.0964 43.3156 55.6304C43.3265 55.7531 43.3098 55.8768 43.2667 55.9923C43.2235 56.1078 43.1551 56.2121 43.0663 56.2976C42.9775 56.3831 42.8707 56.4477 42.7537 56.4864C42.6367 56.5252 42.5125 56.5373 42.3902 56.5218C40.8551 56.5568 39.3088 56.5455 37.7737 56.5455C36.3676 56.5455 34.9739 56.5331 33.5678 56.5218C33.1345 56.5218 32.759 56.3227 32.7363 55.8657C32.739 55.5507 32.846 55.2456 33.0406 54.998C33.1458 54.8577 33.4626 54.834 33.6854 54.834L38.0542 54.8385Z" fill="#F1E7FF"/>
<path d="M21.5959 19.4569C21.5846 20.1244 21.2679 20.5882 20.717 20.6164C20.2394 20.6487 19.7611 20.5644 19.3233 20.371C18.435 19.9265 17.5707 19.4356 16.7339 18.9004C16.4206 18.677 16.1539 18.3946 15.9489 18.0689C15.7984 17.8958 15.7205 17.6714 15.7315 17.4423C15.7424 17.2132 15.8414 16.9972 16.0077 16.8393C16.3579 16.5917 16.7648 16.4361 17.1909 16.3868C17.4663 16.3788 17.7371 16.4579 17.9647 16.613C18.9138 17.1402 19.8629 17.6786 20.7996 18.2533C21.0231 18.3704 21.2134 18.5421 21.3527 18.7526C21.4919 18.9631 21.5756 19.2054 21.5959 19.4569Z" fill="#F1E7FF"/>
<path d="M54.3165 20.8176C53.9647 20.5834 53.4488 20.4194 53.321 20.0914C53.2487 19.6527 53.2805 19.2032 53.4138 18.7791C53.4274 18.7216 53.4533 18.6677 53.4898 18.6212C53.5264 18.5747 53.5726 18.5367 53.6253 18.5099C54.8911 17.795 56.1321 17.045 57.433 16.4126C57.68 16.305 57.9586 16.2947 58.2129 16.3839C58.4672 16.4731 58.6783 16.655 58.804 16.8934C58.9514 17.1063 59.0182 17.3646 58.9925 17.6222C58.9668 17.8798 58.8503 18.1199 58.6638 18.2995C57.5167 19.3468 56.1701 20.1517 54.7045 20.666C54.6082 20.6865 54.5098 20.6945 54.4115 20.6898C54.3709 20.725 54.3385 20.7686 54.3165 20.8176Z" fill="#F1E7FF"/>
<path d="M46 12.1821C46.0611 11.8798 46.1552 11.585 46.2805 11.3032C46.7726 10.3982 47.2986 9.52261 47.8156 8.61989C47.8394 8.58482 47.8507 8.54975 47.8744 8.51468C48.0526 8.21094 48.3338 7.9812 48.667 7.86724C49.0002 7.75327 49.3632 7.76264 49.6901 7.89365C49.8331 7.97979 49.9578 8.09328 50.0571 8.22762C50.1563 8.36197 50.228 8.51455 50.2683 8.67664C50.3085 8.83873 50.3164 9.00715 50.2915 9.1723C50.2667 9.33745 50.2095 9.49608 50.1233 9.63913C49.5926 10.7407 48.9777 11.7997 48.2839 12.8066C48.1832 12.9872 48.0381 13.1391 47.8622 13.2478C47.6863 13.3566 47.4856 13.4186 47.279 13.428C47.0724 13.4374 46.8669 13.3939 46.6818 13.3016C46.4968 13.2092 46.3384 13.0712 46.2217 12.9005C46.1201 12.6705 46.0457 12.4294 46 12.1821Z" fill="#F1E7FF"/>
<path d="M27.6755 13.3999C27.3804 13.4168 27.0868 13.3471 26.8308 13.1994C26.5748 13.0517 26.3675 12.8324 26.2344 12.5684C25.7072 11.7019 25.2163 10.823 24.723 9.93269C24.6276 9.76533 24.5604 9.58341 24.5239 9.39422C24.4308 9.12318 24.4322 8.82859 24.5279 8.55845C24.6236 8.2883 24.8081 8.05856 25.0511 7.90666C25.3168 7.77228 25.6221 7.73857 25.9107 7.81176C26.1993 7.88495 26.4517 8.0601 26.6212 8.30485C27.1508 9.05051 27.6322 9.82925 28.0624 10.6363C28.3156 11.0695 28.5201 11.5293 28.6722 12.0074C28.7232 12.1658 28.7365 12.334 28.7109 12.4985C28.6852 12.663 28.6214 12.8192 28.5245 12.9546C28.4276 13.09 28.3004 13.2008 28.1529 13.2781C28.0055 13.3554 27.842 13.3972 27.6755 13.3999Z" fill="#F1E7FF"/>
<path d="M37.9386 59.2351H35.063C34.4182 59.2351 34.1377 58.9998 34.1139 58.4738C34.0904 58.3518 34.0959 58.226 34.13 58.1066C34.1641 57.9872 34.2259 57.8774 34.3102 57.7863C34.3946 57.6951 34.4992 57.625 34.6156 57.5817C34.732 57.5385 34.857 57.5232 34.9804 57.5371C36.9838 57.5134 38.9985 57.5134 41.0144 57.5258C41.2505 57.5363 41.4747 57.6325 41.6451 57.7963C41.8154 57.9602 41.9202 58.1806 41.9397 58.4161C41.9306 58.5383 41.8964 58.6573 41.8394 58.7658C41.7824 58.8743 41.7038 58.9699 41.6084 59.0467C41.5129 59.1236 41.4028 59.1801 41.2846 59.2127C41.1665 59.2453 41.043 59.2533 40.9216 59.2362L37.9386 59.2351Z" fill="#F1E7FF"/>
<path d="M58.9004 28.1516C59.3924 28.1516 59.8721 28.1403 60.3642 28.1516C60.6877 28.1323 61.0073 28.2309 61.2637 28.4291C61.5202 28.6273 61.6961 28.9117 61.759 29.2297C61.7664 29.3785 61.7433 29.5273 61.6911 29.6668C61.639 29.8064 61.5589 29.9339 61.4557 30.0414C61.3525 30.1489 61.2285 30.2342 61.0912 30.2921C60.9539 30.3499 60.8062 30.3791 60.6572 30.3779C59.4791 30.4695 58.2954 30.4615 57.1187 30.3541C56.9746 30.3486 56.8333 30.3131 56.7039 30.2497C56.5744 30.1864 56.4596 30.0966 56.3669 29.9862C56.2742 29.8758 56.2056 29.7473 56.1656 29.6088C56.1256 29.4703 56.115 29.325 56.1345 29.1822C56.1952 28.8941 56.3508 28.6347 56.5764 28.4456C56.802 28.2565 57.0846 28.1486 57.3789 28.1392C57.8925 28.1392 58.397 28.1516 58.9004 28.1516Z" fill="#F1E7FF"/>
<path d="M15.8431 28.148C16.3115 28.148 16.7809 28.1366 17.2493 28.148C17.5736 28.1394 17.8907 28.2449 18.1454 28.446C18.4 28.6471 18.5761 28.9311 18.6429 29.2486C18.6412 29.5463 18.5221 29.8313 18.3116 30.0418C18.1011 30.2523 17.8162 30.3713 17.5185 30.3731C16.3599 30.4589 15.1962 30.4509 14.0388 30.3493C13.8902 30.3537 13.7425 30.3244 13.6067 30.2636C13.471 30.2028 13.3508 30.1122 13.255 29.9984C13.1593 29.8846 13.0905 29.7506 13.0539 29.6064C13.0172 29.4623 13.0136 29.3118 13.0434 29.1661C13.0779 28.8822 13.2173 28.6215 13.4341 28.435C13.6509 28.2486 13.9295 28.1498 14.2153 28.1581C14.7425 28.1231 15.2934 28.1581 15.8443 28.1468L15.8431 28.148Z" fill="#F1E7FF"/>
<path d="M36.1719 7.46134C36.2307 7.00885 36.2658 6.30183 36.406 5.63327C36.4556 5.41075 36.5891 5.21595 36.7788 5.0895C36.9685 4.96304 37.1997 4.91469 37.4241 4.95454C37.6496 4.95582 37.868 5.03279 38.0444 5.17311C38.2209 5.31343 38.345 5.50895 38.397 5.7283C38.4771 5.94635 38.5244 6.17509 38.5373 6.40703C38.526 7.45002 38.526 8.50433 38.4321 9.54732C38.4103 9.81418 38.2906 10.0635 38.0959 10.2474C37.9013 10.4312 37.6454 10.5364 37.3778 10.5428C37.1113 10.5348 36.8567 10.4309 36.6609 10.25C36.4651 10.0691 36.3412 9.82361 36.3121 9.55863C36.2269 8.86264 36.1801 8.16249 36.1719 7.46134Z" fill="#F1E7FF"/>
<path d="M51.0848 61.1889H54.7172C54.7285 61.4695 54.7409 61.7048 54.7647 62.0091H50.0859V54.793H51.0814L51.0848 61.1889Z" fill="#F1E7FF"/>
<path d="M49.1046 61.1658V62.021H44.4768C44.4475 61.9018 44.4278 61.7803 44.418 61.6579V55.2258C44.418 54.3705 45.0503 54.8864 45.461 54.7224V61.1704L49.1046 61.1658Z" fill="#F1E7FF"/>
<path d="M40.9389 70.2214C41.1493 69.3538 41.3609 68.4985 41.5724 67.632C41.7002 67.1162 41.7127 67.1162 42.3563 67.2452C42.2432 67.6784 42.1301 68.1004 42.0283 68.5212C41.802 69.3651 41.6063 70.218 41.3609 71.0517C41.3133 71.2271 41.0792 71.4737 40.9389 71.4624C40.8283 71.4437 40.7237 71.3989 40.634 71.3316C40.5442 71.2643 40.4719 71.1765 40.4231 71.0755C40.1776 70.3606 40.0011 69.623 39.7907 68.8968C39.7443 68.709 39.6618 68.5336 39.5566 68.218C39.2749 69.2361 39.0407 70.1162 38.7828 70.994C38.7126 71.252 38.6776 71.5099 38.2794 71.5099C37.8812 71.5099 37.8574 71.2406 37.7873 70.994C37.4593 69.7497 37.1425 68.5223 36.8145 67.261C37.2828 67.0348 37.5407 67.1558 37.6346 67.6603C37.8099 68.5155 38.009 69.3572 38.2002 70.2022C38.2466 70.2022 38.3054 70.2135 38.3529 70.2135C38.5871 69.347 38.8212 68.4805 39.0792 67.6252C39.1255 67.4612 39.2319 67.2157 39.3608 67.1795C39.6651 67.097 39.9581 67.1094 40.0633 67.5438C40.2737 68.4488 40.5441 69.3244 40.7783 70.2135C40.8314 70.2212 40.8852 70.2238 40.9389 70.2214Z" fill="#F1E7FF"/>
<path d="M37.9283 61.7517C37.2496 61.7517 36.5709 61.7641 35.8921 61.7517C35.7755 61.7594 35.6586 61.7434 35.5483 61.7048C35.438 61.6662 35.3366 61.6058 35.2503 61.5271C35.1639 61.4484 35.0942 61.3531 35.0455 61.2469C34.9968 61.1407 34.97 61.0257 34.9668 60.9089C34.9811 60.6725 35.0846 60.4503 35.2563 60.2872C35.428 60.124 35.6553 60.0321 35.8921 60.03C37.3096 60.0187 38.7394 60.0187 40.1569 60.03C40.2743 60.0259 40.3914 60.0463 40.5006 60.0898C40.6098 60.1332 40.7089 60.1988 40.7915 60.2825C40.874 60.3661 40.9384 60.466 40.9805 60.5758C41.0225 60.6855 41.0414 60.8028 41.0358 60.9202C41.031 61.0372 41.0027 61.1519 40.9525 61.2576C40.9023 61.3633 40.8313 61.4578 40.7438 61.5354C40.6562 61.613 40.5539 61.6722 40.4429 61.7094C40.332 61.7465 40.2147 61.7609 40.098 61.7517H37.9283Z" fill="#F1E7FF"/>
<path d="M31.7533 68.5453C31.5132 68.4374 31.2947 68.2868 31.1085 68.1007C30.9903 67.9468 30.8399 67.8205 30.6678 67.7307C30.4957 67.6409 30.3061 67.5897 30.1122 67.5808C29.9183 67.5718 29.7248 67.6053 29.5452 67.6789C29.3656 67.7525 29.2042 67.8644 29.0723 68.0068C28.8023 68.3669 28.6477 68.8004 28.6289 69.2501C28.6101 69.6998 28.728 70.1447 28.9671 70.526C29.143 70.7495 29.3839 70.913 29.6566 70.994C29.9292 71.075 30.2203 71.0696 30.4897 70.9785C30.7487 70.9224 30.9755 70.7675 31.1221 70.5468C31.2687 70.326 31.3235 70.0569 31.2748 69.7964C30.0304 69.5611 30.0304 69.5611 30.0678 69.1516C30.5836 69.1516 31.1108 69.1278 31.6266 69.164C31.7073 69.1861 31.7814 69.2273 31.8427 69.2843C31.9039 69.3412 31.9505 69.4121 31.9784 69.491C32.0135 70.1358 31.9897 70.7681 31.9897 71.5532C31.6967 71.4129 31.4863 71.3066 31.2872 71.2138C31.045 71.4001 30.7646 71.5305 30.4661 71.5957C30.1675 71.6609 29.8583 71.6593 29.5604 71.591C29.2626 71.5227 28.9836 71.3893 28.7433 71.2005C28.503 71.0117 28.3075 70.7721 28.1707 70.4989C28.0176 70.2059 27.9246 69.8853 27.8972 69.5558C27.8698 69.2264 27.9085 68.8948 28.011 68.5806C28.1136 68.2663 28.2779 67.9757 28.4943 67.7258C28.7108 67.476 28.975 67.2719 29.2714 67.1256C29.5195 67.0094 29.7902 66.9495 30.0642 66.9502C30.3381 66.9509 30.6086 67.0123 30.856 67.1298C31.1035 67.2473 31.3219 67.4181 31.4956 67.63C31.6693 67.8418 31.794 68.0895 31.8608 68.3552C31.8295 68.4211 31.7936 68.4846 31.7533 68.5453Z" fill="#F1E7FF"/>
<path d="M50.2767 71.4609H49.6206C49.6206 70.9575 49.6093 70.4654 49.6206 69.9846C49.6443 69.5978 49.4803 69.4462 49.1059 69.4926H49.0471C47.4882 69.4575 47.4995 69.4575 47.4418 71.0039C47.4305 71.1679 47.2428 71.3319 47.1375 71.496C47.0244 71.3444 46.8095 71.1803 46.8095 71.0276C46.7857 69.7618 46.7982 68.4971 46.7982 67.255C47.2665 67.0796 47.4543 67.1611 47.4656 67.6181C47.5244 68.9303 47.5357 68.9303 48.848 68.9303H49.6217C49.6217 68.4858 49.6342 68.0989 49.6217 67.712C49.5991 67.2437 49.7744 67.0559 50.2778 67.2199L50.2767 71.4609Z" fill="#F1E7FF"/>
<path d="M35.6306 67.1841H36.3693C36.3104 68.3311 36.3218 69.4567 36.1589 70.5698C36.0457 71.4013 35.1408 71.7644 34.0265 71.6117C33.6832 71.5673 33.369 71.3961 33.1456 71.1317C32.9222 70.8673 32.8059 70.5288 32.8195 70.183C32.8082 69.1864 32.8195 68.2033 32.8195 67.1841H33.5129C33.5129 68.1445 33.5016 69.0936 33.5129 70.0416C33.504 70.2278 33.548 70.4128 33.6398 70.5752C33.7316 70.7375 33.8676 70.8705 34.0318 70.9588C34.1961 71.047 34.382 71.087 34.568 71.074C34.7541 71.0611 34.9326 70.9957 35.0831 70.8855C35.3961 70.589 35.5846 70.1846 35.6102 69.7542C35.6883 68.9217 35.6306 68.0778 35.6306 67.1841Z" fill="#F1E7FF"/>
<path d="M46.3411 71.4036C45.7901 71.6027 45.5492 71.4387 45.4508 70.9511C45.3693 70.5405 45.2053 70.1785 44.6431 70.2486C44.1148 70.3075 43.4711 70.0371 43.3309 70.8923C43.2483 71.3369 43.0503 71.6774 42.4395 71.4194C42.944 70.1083 43.4361 68.7837 43.9632 67.4715C44.0154 67.3927 44.0846 67.3267 44.1656 67.2782C44.2466 67.2296 44.3375 67.1998 44.4315 67.1909C44.5202 67.1925 44.607 67.2158 44.6845 67.2588C44.7621 67.3018 44.8278 67.3632 44.8761 67.4375C45.3931 68.7441 45.8614 70.0676 46.3411 71.4036ZM43.7992 69.6344H45.0062C44.8071 69.0835 44.6431 68.6163 44.4666 68.1581C44.4233 68.1557 44.3799 68.1595 44.3376 68.1694C44.1623 68.6377 43.987 69.0959 43.7992 69.6344Z" fill="#F1E7FF"/>
<path d="M54.6703 71.4061C54.1047 71.6052 53.8864 71.4298 53.78 70.9728C53.7212 70.7262 53.5685 70.3405 53.4045 70.3167C52.9286 70.2233 52.4391 70.2233 51.9633 70.3167C51.8106 70.3518 51.6827 70.75 51.6239 71.0079C51.5108 71.4762 51.2359 71.5938 50.7676 71.4174C51.2721 70.0825 51.7755 68.759 52.2913 67.4456C52.3387 67.3711 52.4023 67.3082 52.4773 67.2616C52.5523 67.215 52.6368 67.1859 52.7246 67.1764C52.8138 67.1722 52.9028 67.1892 52.9842 67.2259C53.0656 67.2627 53.1371 67.3182 53.1929 67.3879C53.6986 68.7115 54.1669 70.0463 54.6703 71.4061ZM53.3445 69.6764C53.133 69.1108 52.9463 68.6583 52.7698 68.1888C52.7228 68.1871 52.6757 68.1909 52.6296 68.2002C52.4655 68.6685 52.3015 69.138 52.1137 69.6764H53.3445Z" fill="#F1E7FF"/>
<path d="M25.9426 67.1496C26.1417 67.618 25.9189 67.7005 25.5682 67.7152C24.5953 67.7503 24.5953 67.7628 24.5953 68.7333C24.5953 69.472 24.5716 70.2096 24.6067 70.9596C24.6304 71.4517 24.4426 71.592 23.9279 71.4121C23.9279 70.4404 23.9042 69.4438 23.9392 68.4596C23.963 67.9211 23.834 67.6757 23.2367 67.6983C22.9788 67.7096 22.498 67.5105 22.498 67.429C22.5331 66.9245 22.9664 67.1711 23.2243 67.1598C24.127 67.1372 25.0399 67.1496 25.9426 67.1496Z" fill="#F1E7FF"/>
<path d="M56.8614 71.4273C56.2754 71.6026 56.1464 71.3797 56.1589 70.9227C56.1826 70.0325 56.1464 69.1309 56.1702 68.2406C56.1826 67.8186 56.0186 67.675 55.6193 67.7134C55.4084 67.735 55.1956 67.727 54.9869 67.6897C54.9324 67.6685 54.8843 67.6337 54.8473 67.5885C54.8102 67.5433 54.7855 67.4893 54.7754 67.4318C54.7754 67.3492 54.9168 67.1863 55.0016 67.1863C56.0318 67.1742 57.0627 67.1742 58.0944 67.1863C58.1645 67.1863 58.306 67.3266 58.2935 67.3967C58.2838 67.4573 58.2622 67.5154 58.23 67.5676C58.1977 67.6198 58.1555 67.6651 58.1057 67.701C58.0231 67.7598 57.8795 67.7248 57.7664 67.7372C56.8614 67.7723 56.8614 67.7723 56.8614 68.7089V71.4273Z" fill="#F1E7FF"/>
<path d="M21.2676 67.1841H21.8649V71.4601C21.6658 71.4714 21.4904 71.4839 21.2676 71.4952V67.1841Z" fill="#F1E7FF"/>
<path d="M59.4977 71.4616H58.9004V67.2082C59.0882 67.1969 59.276 67.1732 59.4977 67.1494V71.4616Z" fill="#F1E7FF"/>
<path d="M19.5799 67.1841H20.271V69.5732C20.271 70.1015 20.2948 70.6287 20.2597 71.1434C20.2484 71.2565 20.0493 71.3787 19.9317 71.4952C19.8185 71.3821 19.6036 71.261 19.6036 71.1434C19.5686 69.847 19.5799 68.5416 19.5799 67.1841Z" fill="#F1E7FF"/>
</g>
</g>
<defs>
<filter id="filter0_b_2101_483" x="-26.1656" y="-25.2911" width="255.899" height="127.165" filterUnits="userSpaceOnUse" color-interpolation-filters="sRGB">
<feFlood flood-opacity="0" result="BackgroundImageFix"/>
<feGaussianBlur in="BackgroundImageFix" stdDeviation="13.0828"/>
<feComposite in2="SourceAlpha" operator="in" result="effect1_backgroundBlur_2101_483"/>
<feBlend mode="normal" in="SourceGraphic" in2="effect1_backgroundBlur_2101_483" result="shape"/>
</filter>
<clipPath id="clip0_2101_483">
<rect y="0.874512" width="203.568" height="74.8335" rx="37.4168" fill="white"/>
</clipPath>
</defs>
</svg>
