<svg width="51" height="54" viewBox="0 0 51 54" fill="none" xmlns="http://www.w3.org/2000/svg">
<path d="M26.438 0.941406L6.98632 0.941406L6.98632 13.1094C6.98632 17.4796 9.34595 26.7341 20.1826 26.7341C30.1227 26.7341 33.2075 18.5079 33.1218 14.1377C33.2075 18.5079 36.8065 27.1626 46.4038 27.1626C36.875 27.1626 33.1218 37.1027 33.1218 41.7299C33.1218 37.1312 30.534 27.8995 20.1826 27.7624C9.83123 27.6253 6.98632 36.2458 6.98632 41.0444L6.98632 53.6409L26.438 53.6409C34.6642 53.6409 51.4595 46.3572 50.4312 27.1626C49.403 7.968 33.8073 0.941406 26.438 0.941406Z" fill="#F1E7FF"/>
<path d="M5.43375 22.1069C5.536 24.892 7.82198 27.1266 10.671 27.2266C7.82198 27.3266 5.536 29.5612 5.43375 32.3463C5.33149 29.5612 3.06582 27.3266 0.216797 27.2266C3.06582 27.1266 5.33149 24.892 5.43375 22.1069Z" fill="#F1E7FF"/>
</svg>
