<svg width="197" height="195" viewBox="0 0 197 195" fill="none" xmlns="http://www.w3.org/2000/svg">
<mask id="mask0_1475_1329" style="mask-type:alpha" maskUnits="userSpaceOnUse" x="0" y="0" width="197" height="195">
<rect width="196.396" height="194.238" fill="#D9D9D9"/>
</mask>
<g mask="url(#mask0_1475_1329)">
<path d="M-1.92506 306.534C-65.0358 306.534 -116.381 255.687 -116.381 193.251L-84.7719 193.251C-84.7719 209.472 -79.9125 225.328 -70.8083 238.815C-61.7041 252.301 -48.764 262.813 -33.6242 269.02C-18.4844 275.228 -1.82486 276.852 14.2475 273.687C30.3198 270.523 45.083 262.712 56.6705 251.242C68.258 239.773 76.1492 225.16 79.3462 209.251C82.5432 193.342 80.9025 176.853 74.6314 161.867C68.3603 146.881 57.7404 134.073 44.115 125.061C30.4895 116.05 14.4704 111.24 -1.91676 111.24L-1.91676 79.9934C61.194 79.9934 112.539 130.841 112.539 193.284C112.539 255.728 61.1857 306.534 -1.92506 306.534Z" fill="#F4CA76"/>
<path d="M-1.653 275.379C-23.6781 275.379 -44.8011 266.719 -60.3752 251.303C-75.9492 235.888 -84.6987 214.98 -84.6987 193.179C-84.6987 171.378 -75.9492 150.47 -60.3752 135.054C-44.8011 119.639 -23.6781 110.979 -1.653 110.979L-1.653 142.266C-15.2948 142.266 -28.3779 147.63 -38.0241 157.178C-47.6703 166.726 -53.0893 179.676 -53.0893 193.179C-53.0893 206.682 -47.6703 219.632 -38.0241 229.18C-28.3779 238.728 -15.2948 244.092 -1.653 244.092L-1.653 275.379Z" fill="#A3B6F5"/>
<path d="M-2.78728 336.789L-2.78728 305.527C59.7849 305.527 110.724 255.139 110.724 193.171C110.724 131.203 59.8181 80.8148 -2.78728 80.8148C-65.3926 80.8148 -116.299 131.203 -116.299 193.171L-147.875 193.171C-147.875 113.988 -82.7839 49.5684 -2.78728 49.5684C77.2094 49.5684 142.3 113.988 142.3 193.171C142.3 272.353 77.2094 336.789 -2.78728 336.789Z" fill="#EE875E"/>
</g>
</svg>
