<svg width="197" height="197" viewBox="0 0 197 197" fill="none" xmlns="http://www.w3.org/2000/svg">
<mask id="mask0_1475_1330" style="mask-type:alpha" maskUnits="userSpaceOnUse" x="0" y="0" width="197" height="197">
<rect width="196.983" height="196.983" fill="#D9D9D9"/>
</mask>
<g mask="url(#mask0_1475_1330)">
<path d="M198.357 110.575C135.058 110.575 83.5586 59.009 83.5586 -4.30881L115.263 -4.30881C115.263 12.1408 120.136 28.221 129.268 41.8983C138.399 55.5756 151.378 66.2359 166.563 72.5309C181.748 78.8259 198.458 80.4728 214.578 77.2637C230.698 74.0545 245.506 66.1334 257.128 54.5018C268.75 42.8702 276.665 28.0505 279.871 11.917C283.078 -4.21654 281.432 -20.9394 275.142 -36.1368C268.853 -51.3342 258.201 -64.3238 244.535 -73.4627C230.869 -82.6016 214.802 -87.4794 198.365 -87.4794L198.365 -119.167C261.665 -119.167 313.164 -67.6016 313.164 -4.2755C313.164 59.0506 261.657 110.575 198.357 110.575Z" fill="#F4CA76"/>
<path d="M198.63 78.9795C176.539 78.9795 155.353 70.1967 139.732 54.5633C124.112 38.9299 115.336 17.7265 115.336 -4.38245C115.336 -26.4914 124.112 -47.6948 139.732 -63.3282C155.353 -78.9616 176.539 -87.7443 198.63 -87.7443L198.63 -56.0147C184.947 -56.0147 171.825 -50.575 162.15 -40.892C152.475 -31.2091 147.04 -18.0762 147.04 -4.38245C147.04 9.31131 152.475 22.4442 162.15 32.1272C171.825 41.8101 184.947 47.25 198.63 47.25L198.63 78.9795Z" fill="#A3B6F5"/>
<path d="M197.492 141.258L197.492 109.553C260.252 109.553 311.343 58.453 311.343 -4.39069C311.343 -67.2344 260.285 -118.334 197.492 -118.334C134.7 -118.334 83.6413 -67.2344 83.6413 -4.39069L51.9707 -4.39069C51.9707 -84.6919 117.256 -150.022 197.492 -150.022C277.728 -150.022 343.014 -84.6919 343.014 -4.39069C343.014 75.9106 277.728 141.258 197.492 141.258Z" fill="#EE875E"/>
</g>
</svg>
