<svg width="90" height="205" viewBox="0 0 90 205" fill="none" xmlns="http://www.w3.org/2000/svg">
<path d="M-12.374 197.046C0.0380047 197.047 12.3286 194.602 23.7959 189.853C35.2633 185.104 45.6828 178.142 54.4594 169.365C63.236 160.589 70.1979 150.17 74.9475 138.703C79.6971 127.236 82.1413 114.945 82.1406 102.534C82.1406 50.3338 39.8274 8.01659 -12.374 8.01659" stroke="#A3B6F5" stroke-width="14.0717" stroke-miterlimit="10"/>
<path d="M-12.374 175.704C7.09483 175.704 25.7662 167.995 39.5327 154.272C53.2993 140.55 61.0332 121.938 61.0332 102.531C61.0332 83.1249 53.2993 64.5131 39.5327 50.7906C25.7662 37.0681 7.09484 29.3588 -12.3739 29.3588" stroke="#F4CA76" stroke-width="14.0717" stroke-miterlimit="10"/>
<path d="M-12.3742 155.3C1.62095 155.3 15.0429 149.74 24.9389 139.844C34.835 129.948 40.3945 116.526 40.3945 102.531C40.3945 88.5359 34.835 75.114 24.9389 65.218C15.0429 55.3219 1.62095 49.7624 -12.3742 49.7624" stroke="#6D9773" stroke-width="14.0717" stroke-miterlimit="10"/>
</svg>
