<svg width="347" height="458" viewBox="0 0 347 458" fill="none" xmlns="http://www.w3.org/2000/svg">
<path d="M-4.5152 367.245C18.2833 367.246 40.8587 362.756 61.922 354.033C82.9853 345.309 102.124 332.522 118.245 316.401C134.366 300.28 147.153 281.142 155.877 260.08C164.602 239.017 169.091 216.442 169.09 193.644C169.09 97.763 91.3687 20.0345 -4.51519 20.0345" stroke="#D6B9FC" stroke-width="25.8469" stroke-miterlimit="10"/>
<path d="M-4.51437 328.043C31.246 328.043 65.5417 313.883 90.8281 288.677C116.115 263.472 130.32 229.286 130.32 193.64C130.32 157.993 116.115 123.807 90.8282 98.6016C65.5417 73.396 31.246 59.2357 -4.51436 59.2357" stroke="#C15A47" stroke-width="25.8469" stroke-miterlimit="10"/>
<path d="M-4.51573 290.565C21.1906 290.565 45.8441 280.353 64.0212 262.176C82.1984 243.999 92.4102 219.345 92.4102 193.639C92.4102 167.933 82.1984 143.279 64.0212 125.102C45.8441 106.925 21.1906 96.7132 -4.51572 96.7132" stroke="#F4CA76" stroke-width="25.8469" stroke-miterlimit="10"/>
</svg>
