<svg width="344" height="528" viewBox="0 0 344 528" fill="none" xmlns="http://www.w3.org/2000/svg">
<path d="M351.515 437.245C328.717 437.246 306.141 432.756 285.078 424.033C264.015 415.309 244.876 402.522 228.755 386.401C212.634 370.28 199.847 351.142 191.123 330.08C182.398 309.017 177.909 286.442 177.91 263.644C177.91 167.763 255.631 90.0345 351.515 90.0345" stroke="#D6B9FC" stroke-width="25.8469" stroke-miterlimit="10"/>
<path d="M351.514 398.043C315.754 398.043 281.458 383.883 256.172 358.677C230.885 333.472 216.68 299.286 216.68 263.64C216.68 227.993 230.885 193.807 256.172 168.602C281.458 143.396 315.754 129.236 351.514 129.236" stroke="#C15A47" stroke-width="25.8469" stroke-miterlimit="10"/>
<path d="M351.516 360.565C325.809 360.565 301.156 350.353 282.979 332.176C264.802 313.999 254.59 289.345 254.59 263.639C254.59 237.933 264.802 213.279 282.979 195.102C301.156 176.925 325.809 166.713 351.516 166.713" stroke="#F4CA76" stroke-width="25.8469" stroke-miterlimit="10"/>
</svg>
