<svg width="91" height="204" viewBox="0 0 91 204" fill="none" xmlns="http://www.w3.org/2000/svg">
<path d="M102.374 196.457C89.962 196.458 77.6714 194.014 66.2041 189.264C54.7367 184.515 44.3172 177.553 35.5406 168.777C26.764 160 19.8021 149.581 15.0525 138.114C10.3029 126.647 7.8587 114.357 7.85937 101.945C7.85937 49.7449 50.1726 7.42773 102.374 7.42772" stroke="#A3B6F5" stroke-width="14.0717" stroke-miterlimit="10"/>
<path d="M102.374 175.115C82.9052 175.115 64.2338 167.406 50.4673 153.683C36.7007 139.961 28.9668 121.349 28.9668 101.943C28.9668 82.536 36.7007 63.9243 50.4673 50.2017C64.2338 36.4792 82.9052 28.77 102.374 28.77" stroke="#F4CA76" stroke-width="14.0717" stroke-miterlimit="10"/>
<path d="M102.374 154.711C88.3791 154.711 74.9571 149.151 65.0611 139.255C55.165 129.359 49.6055 115.937 49.6055 101.942C49.6055 87.9471 55.165 74.5252 65.0611 64.6291C74.9571 54.7331 88.379 49.1735 102.374 49.1735" stroke="#6D9773" stroke-width="14.0717" stroke-miterlimit="10"/>
</svg>
