<svg width="206" height="397" viewBox="0 0 206 397" fill="none" xmlns="http://www.w3.org/2000/svg">
<path d="M-589.819 396.612L-757.819 396.612C-773.615 396.612 -786.419 383.808 -786.419 368.012C-786.419 353.367 -775.412 341.293 -761.219 339.612L-761.819 339.612C-761.597 339.612 -761.376 339.61 -761.155 339.605C-760.276 339.503 -759.385 339.44 -758.484 339.42C-744.26 337.768 -733.219 325.679 -733.219 311.012C-733.219 297.541 -742.533 286.245 -755.072 283.213L-990.019 283.213C-1005.81 283.213 -1018.62 270.408 -1018.62 254.613C-1018.62 238.818 -1005.81 226.013 -990.019 226.013L-887.966 226.013C-874.978 223.312 -865.219 211.802 -865.219 198.012C-865.219 186.122 -872.475 175.927 -882.8 171.612L-886.519 171.612C-902.315 171.612 -915.119 158.808 -915.119 143.012C-915.119 127.217 -902.315 114.412 -886.519 114.412L-570.419 114.412C-556.227 112.731 -545.219 100.657 -545.219 86.0123C-545.219 71.3672 -556.227 59.2932 -570.42 57.6122L-927.819 57.6123C-943.615 57.6123 -956.419 44.8076 -956.419 29.0123C-956.419 13.217 -943.615 0.412354 -927.819 0.412354L176.581 0.41214C192.376 0.41214 205.181 13.2168 205.181 29.0121C205.181 44.8075 192.376 57.6122 176.581 57.6122L47.7825 57.6122C33.5894 59.2928 22.5815 71.3671 22.5815 86.0123C22.5815 100.657 33.5887 112.731 47.7812 114.412L94.5808 114.412C110.376 114.412 123.181 127.217 123.181 143.012C123.181 158.808 110.376 171.612 94.5808 171.612L-621.438 171.612C-631.764 175.927 -639.019 186.122 -639.019 198.012C-639.019 211.802 -629.26 223.312 -616.273 226.013L-472.419 226.013C-456.624 226.013 -443.819 238.817 -443.819 254.613C-443.819 270.408 -456.624 283.213 -472.419 283.213L-663.566 283.213C-676.106 286.245 -685.419 297.541 -685.419 311.012C-685.419 325.657 -674.412 337.731 -660.219 339.412L-589.819 339.412C-574.024 339.412 -561.219 352.217 -561.219 368.012C-561.219 383.808 -574.024 396.612 -589.819 396.612Z" fill="#D6B9FC"/>
</svg>
