<svg width="226" height="397" viewBox="0 0 226 397" fill="none" xmlns="http://www.w3.org/2000/svg">
<path d="M429.021 0.559082L261.021 0.559082C245.225 0.559082 232.421 13.3637 232.421 29.1591C232.421 43.8039 243.428 55.8779 257.621 57.5591L257.021 57.5591C257.243 57.5591 257.464 57.5616 257.685 57.5667C258.564 57.6687 259.455 57.731 260.356 57.7515C274.58 59.4037 285.621 71.492 285.621 86.1591C285.621 99.6301 276.307 110.926 263.768 113.959L28.8207 113.958C13.0253 113.958 0.220703 126.763 0.220703 142.558C0.220703 158.354 13.0253 171.158 28.8207 171.158L130.874 171.159C143.862 173.86 153.621 185.37 153.621 199.159C153.621 211.049 146.365 221.244 136.04 225.559L132.321 225.559C116.525 225.559 103.721 238.364 103.721 254.159C103.721 269.954 116.525 282.759 132.321 282.759L448.42 282.759C462.613 284.44 473.621 296.514 473.621 311.159C473.621 325.804 462.613 337.878 448.42 339.559L91.0207 339.559C75.2253 339.559 62.4207 352.364 62.4207 368.159C62.4207 383.954 75.2253 396.759 91.0207 396.759L1195.42 396.759C1211.22 396.759 1224.02 383.955 1224.02 368.159C1224.02 352.364 1211.22 339.559 1195.42 339.559L1106.62 339.559C1092.43 337.879 1081.42 325.804 1081.42 311.159C1081.42 296.514 1092.43 284.44 1106.62 282.759L1134.42 282.759C1150.22 282.759 1163.02 269.954 1163.02 254.159C1163.02 238.364 1150.22 225.559 1134.42 225.559L397.401 225.559C387.076 221.244 379.821 211.049 379.821 199.159C379.821 185.37 389.579 173.86 402.567 171.159L546.421 171.159C562.216 171.159 575.021 158.354 575.021 142.559C575.021 126.763 562.216 113.959 546.421 113.959L355.274 113.959C342.734 110.926 333.421 99.6302 333.421 86.1591C333.421 71.5142 344.428 59.4402 358.621 57.7591L429.021 57.7591C444.816 57.7591 457.621 44.9544 457.621 29.1591C457.621 13.3637 444.816 0.559082 429.021 0.559082Z" fill="#D6B9FC"/>
</svg>
