<svg width="320" height="307" viewBox="0 0 320 307" fill="none" xmlns="http://www.w3.org/2000/svg">
<path d="M-108.999 6.75355e-08L59.0008 4.10757e-08C74.7961 3.85879e-08 87.6008 12.8047 87.6008 28.6C87.6008 43.2449 76.5935 55.3188 62.4008 57L63.0008 57C62.7787 57 62.5572 57.0025 62.3363 57.0076C61.4575 57.1096 60.5665 57.1719 59.6653 57.1924C45.4415 58.8446 34.4008 70.933 34.4008 85.6C34.4008 99.0711 43.7143 110.367 56.2535 113.399L291.201 113.399C306.996 113.399 319.801 126.204 319.801 141.999C319.801 157.795 306.996 170.599 291.201 170.599L117.148 170.599C104.16 173.3 94.4008 184.811 94.4008 198.6C94.4008 210.49 101.656 220.685 111.981 225L187.701 225C203.496 225 216.301 237.805 216.301 253.6C216.301 269.395 203.496 282.2 187.701 282.2L-128.399 282.2C-142.592 283.881 -153.599 295.955 -153.599 310.6C-153.599 325.245 -142.592 337.319 -128.399 339L229.001 339C244.796 339 257.601 351.805 257.601 367.6C257.601 383.395 244.796 396.2 229.001 396.2L-875.399 396.2C-891.195 396.2 -903.999 383.396 -903.999 367.6C-903.999 351.805 -891.195 339 -875.399 339L-786.601 339C-772.408 337.319 -761.4 325.245 -761.4 310.6C-761.4 295.955 -772.407 283.881 -786.6 282.2L-814.399 282.2C-830.194 282.2 -842.999 269.395 -842.999 253.6C-842.999 237.805 -830.194 225 -814.399 225L-77.3799 225C-67.0547 220.685 -59.7992 210.49 -59.7992 198.6C-59.7992 184.811 -69.5579 173.301 -82.5458 170.6L-226.399 170.6C-242.195 170.6 -254.999 157.795 -254.999 142C-254.999 126.204 -242.195 113.4 -226.399 113.4L-35.2521 113.4C-22.7128 110.367 -13.3992 99.0711 -13.3992 85.6C-13.3992 70.9551 -24.4066 58.8812 -38.5992 57.2L-108.999 57.2C-124.795 57.2 -137.599 44.3953 -137.599 28.6C-137.599 12.8047 -124.795 7.00232e-08 -108.999 6.75355e-08Z" fill="#D6B9FC"/>
</svg>
