<svg width="477" height="110" viewBox="0 0 477 110" fill="none" xmlns="http://www.w3.org/2000/svg">
<path d="M569.352 171.746C553.557 171.746 540.752 158.941 540.752 143.146C540.752 127.351 553.557 114.546 569.352 114.546L632.752 114.546C646.945 112.865 657.952 100.791 657.952 86.1459C657.952 71.5016 646.946 59.4281 632.754 57.7461L28.7523 57.7458C12.957 57.7458 0.152344 44.9412 0.152344 29.1459C0.152344 13.3505 12.957 0.545898 28.7523 0.545898L987.952 0.546265C1003.75 0.546265 1016.55 13.351 1016.55 29.1463C1016.55 44.9417 1003.75 57.7463 987.952 57.7463L809.95 57.7462C795.758 59.4285 784.752 71.5019 784.752 86.1459C784.752 100.791 795.76 112.865 809.953 114.546L1086.95 114.546C1102.75 114.546 1115.55 127.351 1115.55 143.146C1115.55 158.941 1102.75 171.746 1086.95 171.746L890.952 171.746C876.759 173.427 865.752 185.501 865.752 200.146C865.752 214.791 876.76 226.865 890.952 228.546L916.352 228.546C932.148 228.546 944.952 241.351 944.952 257.146C944.952 272.941 932.148 285.746 916.352 285.746L710.352 285.746C694.557 285.746 681.752 272.941 681.752 257.146C681.752 241.351 694.557 228.546 710.352 228.546L752.752 228.546C766.945 226.865 777.952 214.791 777.952 200.146C777.952 185.501 766.945 173.427 752.752 171.746L569.352 171.746Z" fill="#D6B9FC"/>
</svg>
