<svg width="510" height="26" viewBox="0 0 510 26" fill="none" xmlns="http://www.w3.org/2000/svg">
<path d="M1.33382 2.22311C168.033 -4.00112 339.848 12.581 507.88 4.59103C509.593 4.50984 509.747 6.17414 508.046 6.30269C340.918 18.7985 169.211 1.88484 1.52413 3.91448C-0.176881 3.95507 -0.379095 2.29077 1.33382 2.22311Z" fill="#F4CA76"/>
<path d="M259.974 21.9308C314.275 21.7617 370.219 22.1812 424.58 22.5127C426.4 22.5127 426.602 23.541 424.806 23.629C370.349 26.2946 314.608 25.8548 259.867 23.0472C258.059 22.9592 258.154 21.9376 259.974 21.9308Z" fill="#F4CA76"/>
<path d="M245.817 21.9791C238.116 22.0615 230.417 21.7786 222.8 21.1335C219.933 20.8899 220.29 19.7127 223.24 19.6789C230.936 19.5968 238.631 19.8797 246.245 20.5246C249.112 20.7681 248.767 21.9453 245.817 21.9791Z" fill="#F4CA76"/>
</svg>
