<svg width="189" height="16" viewBox="0 0 189 16" fill="none" xmlns="http://www.w3.org/2000/svg">
<path d="M1.41778 0.968217C62.7153 -3.05588 125.894 7.66483 187.681 2.49912C188.311 2.44663 188.368 3.52264 187.742 3.60575C126.287 11.6846 63.1484 0.749516 1.48777 2.06172C0.862281 2.08797 0.787925 1.01196 1.41778 0.968217Z" fill="#F4CA76"/>
<path d="M96.5223 13.7096C116.49 13.6003 137.061 13.8715 157.05 14.0858C157.719 14.0858 157.794 14.7506 157.133 14.8075C137.109 16.5309 116.612 16.2466 96.4829 14.4313C95.8181 14.3745 95.8531 13.714 96.5223 13.7096Z" fill="#F4CA76"/>
<path d="M91.3176 13.7403C88.486 13.7935 85.655 13.6106 82.8538 13.1935C81.7997 13.036 81.9309 12.275 83.0157 12.2531C85.8457 12.2 88.6753 12.3829 91.475 12.7998C92.5292 12.9573 92.4023 13.7184 91.3176 13.7403Z" fill="#F4CA76"/>
</svg>
