<svg width="229" height="228" viewBox="0 0 229 228" fill="none" xmlns="http://www.w3.org/2000/svg">
<path d="M209.052 63.6982C200.538 63.703 192.128 65.5713 184.413 69.1718C176.697 72.7724 169.864 78.0179 164.391 84.5404C158.919 91.0628 154.94 98.704 152.735 106.928C150.53 115.151 150.151 123.758 151.626 132.143C153.1 140.529 156.393 148.489 161.271 155.467C166.15 162.445 172.496 168.271 179.866 172.535C187.235 176.799 195.448 179.398 203.929 180.151C212.41 180.903 220.952 179.79 228.957 176.89V67.1873C222.576 64.8758 215.839 63.6952 209.052 63.6982Z" fill="#6D9773"/>
<path d="M2.27847 225.414V2.27847H225.414V225.414H2.27847Z" stroke="#F1E7FF" stroke-width="4.55695" stroke-miterlimit="10"/>
</svg>
