<svg width="229" height="229" viewBox="0 0 229 229" fill="none" xmlns="http://www.w3.org/2000/svg">
<path d="M138.886 209.015C138.882 200.509 137.018 192.107 133.424 184.397C129.831 176.688 124.595 169.857 118.084 164.384C111.573 158.911 103.943 154.928 95.7306 152.714C87.5179 150.5 78.9204 150.109 70.5405 151.567C62.1606 153.026 54.201 156.3 47.2194 161.158C40.2379 166.017 34.4033 172.344 30.1244 179.695C25.8455 187.047 23.2258 195.245 22.4489 203.715C21.672 212.185 22.7567 220.723 25.627 228.73H135.453C137.728 222.406 138.889 215.736 138.886 209.015Z" fill="#EE875E"/>
<path d="M2.91129 226.048V2.91324H226.046V226.048H2.91129Z" stroke="#F1E7FF" stroke-width="4.55695" stroke-miterlimit="10"/>
</svg>
