<svg width="229" height="228" viewBox="0 0 229 228" fill="none" xmlns="http://www.w3.org/2000/svg">
<path d="M21.9054 61.7998C14.6343 61.7979 7.42733 63.1596 0.658203 65.8144V174.466C8.64702 177.594 17.2274 178.921 25.7877 178.353C34.3481 177.785 42.6779 175.336 50.1835 171.181C57.6892 167.025 64.186 161.266 69.2111 154.312C74.2362 147.359 77.6658 139.382 79.2557 130.952C80.8456 122.521 80.5565 113.844 78.4092 105.538C76.2618 97.2316 72.309 89.5014 66.8323 82.8977C61.3557 76.294 54.4899 70.9795 46.7244 67.3328C38.9589 63.686 30.4846 61.7968 21.9054 61.7998Z" fill="#D6B9FC"/>
<path d="M2.91129 225.721V2.58609H226.046V225.721H2.91129Z" stroke="#F1E7FF" stroke-width="4.55695" stroke-miterlimit="10"/>
</svg>
