<svg width="81" height="104" viewBox="0 0 81 104" fill="none" xmlns="http://www.w3.org/2000/svg">
<g id="E-Cell logo">
<path id="Path 634" d="M33.9584 43.5778C34.2928 45.7932 35.4524 47.8253 37.2309 49.3125C38.1147 49.943 39.1221 50.4034 40.1954 50.6675C41.2687 50.9315 42.3869 50.9941 43.486 50.8515C46.1626 50.6569 48.8238 50.3068 51.4545 49.8034C54.7226 49.264 57.7786 47.9151 60.3075 45.8958C61.6956 44.8061 62.7512 43.3896 63.3666 41.7911C63.982 40.1925 64.1352 38.4691 63.8105 36.7968C62.6174 30.0681 58.1909 25.5631 51.9934 22.4521C48.6242 20.7942 44.8628 19.9666 41.0609 20.0468C36.1368 20.0094 31.3288 21.4511 27.3373 24.1617C23.3458 26.8724 20.3795 30.7103 18.8707 35.1163C17.933 38.037 17.6438 41.1077 18.021 44.1377C18.3982 47.1678 19.4338 50.0927 21.0635 52.731C22.5836 55.3355 24.4512 57.76 26.1255 60.2929C27.7798 62.5677 28.6959 65.245 28.7625 67.9997C28.8889 69.0721 29.4136 70.0682 30.2444 70.8127C31.0751 71.5572 32.1587 72.0023 33.3042 72.0698L48.7971 72.0698C49.914 72.0647 50.9958 71.7018 51.8637 71.0409C52.7317 70.38 53.3339 69.4607 53.5711 68.4347C53.5897 68.3264 53.6287 68.1989 53.6473 68.0364L56.8994 68.0364C56.8714 69.0118 56.6297 69.9713 56.1895 70.855C55.7492 71.7386 55.1197 72.5274 54.3404 73.172C53.9539 73.5353 53.5116 73.8236 53.0898 74.1677C52.2056 74.8726 51.0724 75.2404 49.9139 75.1983C43.8892 75.1441 37.846 75.1808 31.8213 75.1616C31.2303 75.1414 30.6546 74.9797 30.1488 74.6917C28.2166 73.6953 26.7075 72.1047 25.8747 70.1867C25.6382 69.6294 25.5013 69.0392 25.4696 68.4399C25.3905 65.8014 24.4346 63.2524 22.736 61.1506C20.2085 58.0354 18.1076 54.6339 16.4827 51.0261C13.712 43.7176 13.5967 36.4457 17.7724 29.5895C19.8606 26.0229 22.8693 23.0071 26.5218 20.8194C30.1744 18.6318 34.3535 17.3425 38.6748 17.0702C42.2689 16.6875 45.9083 17.0056 49.3656 18.0047C52.823 19.0037 56.0241 20.6622 58.7688 22.8766C63.1153 26.1015 66.0801 30.6905 67.1201 35.8028C67.4961 37.6902 67.4399 39.6311 66.9554 41.4964C66.471 43.3617 65.5692 45.1086 64.3103 46.6207C61.5516 49.8939 58.0104 52.5091 53.9744 54.2542C50.8674 55.8977 47.4091 56.8681 43.8521 57.0945C40.4014 57.3076 36.9378 57.2491 33.4975 56.9198C30.952 56.5222 28.6329 55.3047 26.9376 53.4761C25.2424 51.6474 24.2767 49.3214 24.2059 46.8967C23.8512 42.8486 24.6825 38.7865 26.6098 35.151C28.537 31.5155 31.4866 28.4455 35.1384 26.2741C36.6429 25.259 38.3528 24.5446 40.1625 24.175C41.9722 23.8055 43.8433 23.7886 45.6602 24.1255C46.7547 24.2375 47.8049 24.5937 48.7233 25.1643C49.6418 25.735 50.4019 26.5036 50.9404 27.4063C51.4789 28.3089 51.7802 29.3194 51.8192 30.3536C51.8582 31.3879 51.6337 32.4159 51.1646 33.3521C49.9516 36.0261 47.6886 38.1577 44.8463 39.3034C41.7856 40.7323 38.5726 41.8363 35.4153 43.0835C34.9394 43.2726 34.4531 43.4377 33.9584 43.5778ZM33.5737 40.6467C35.3477 40.3011 37.0451 39.6706 38.5912 38.7829C40.289 37.972 41.6887 36.7006 42.6091 35.1335C43.5295 33.5663 43.9282 31.7756 43.7536 29.993C43.8033 29.4584 43.6812 28.9221 43.4033 28.4534C43.1254 27.9846 42.7043 27.605 42.1945 27.3635C41.6847 27.122 41.1096 27.0298 40.5434 27.0987C39.9773 27.1676 39.4461 27.3945 39.0186 27.7501C38.6884 27.9368 38.3844 28.1615 38.1136 28.4191C34.5363 31.7835 33.7075 36.0526 33.5737 40.6467Z" fill="#F1E7FF"/>
<path id="Path 635" d="M29.7287 80.3201C29.5443 80.4082 29.3415 80.4569 29.1347 80.4625C28.928 80.4682 28.7225 80.4308 28.5329 80.353C28.3433 80.2752 28.1745 80.1589 28.0384 80.0125C27.9023 79.866 27.8024 79.6931 27.7459 79.5061C27.1973 78.7807 26.3675 78.2868 25.4352 78.131C24.503 77.9751 23.5429 78.1697 22.7619 78.6729C20.4129 80.3201 20.7177 84.6975 22.2044 86.1841C22.6146 86.5655 23.1196 86.8447 23.6736 86.9963C24.2276 87.1478 24.8131 87.167 25.377 87.0519C25.9409 86.9369 26.4653 86.6913 26.9027 86.3376C27.34 85.9838 27.6765 85.5329 27.8816 85.0259C28.2662 83.9779 28.8832 83.8678 29.8254 84.1036C29.7922 85.2029 29.3409 86.2546 28.5532 87.0677C27.7656 87.8808 26.6939 88.4015 25.5326 88.5353C20.3553 88.9877 19.0471 85.0976 19.2013 82.0232C19.223 81.6642 19.2746 81.3074 19.3556 80.9559C19.4695 80.0498 19.8508 79.1918 20.4564 78.4787C21.0619 77.7657 21.8676 77.226 22.7823 76.9208C23.7199 76.5515 24.7477 76.4321 25.7527 76.5757C26.7578 76.7193 27.7014 77.1203 28.4799 77.7348C28.873 78.0565 29.1879 78.4538 29.4034 78.8998C29.6188 79.3459 29.7298 79.8302 29.7287 80.3201Z" fill="#F1E7FF"/>
<path id="Path 636" d="M41.5778 77.0968L48.5836 77.0968C49.6819 77.0968 50.1818 77.4951 50.2208 78.3196C50.2388 78.5092 50.2114 78.7001 50.1405 78.8784C50.0696 79.0567 49.9572 79.2178 49.8113 79.3499C49.6655 79.4819 49.49 79.5816 49.2978 79.6415C49.1056 79.7014 48.9016 79.72 48.7007 79.696C46.179 79.7502 43.6386 79.7327 41.1169 79.7327C38.807 79.7327 36.5176 79.7135 34.2077 79.696C33.4959 79.696 32.879 79.3886 32.8418 78.6829C32.8461 78.1966 33.0219 77.7254 33.3417 77.3431C33.5145 77.1265 34.0348 77.0898 34.4009 77.0898L41.5778 77.0968Z" fill="#F1E7FF"/>
<path id="Path 637" d="M14.5398 22.4633C14.5212 23.4939 14.0009 24.2101 13.0959 24.2538C12.3113 24.3036 11.5257 24.1735 10.8064 23.8747C9.34715 23.1884 7.92729 22.4304 6.55273 21.6039C6.03797 21.259 5.59986 20.8229 5.26305 20.32C5.01588 20.0528 4.88797 19.7061 4.90597 19.3524C4.92397 18.9987 5.0865 18.6651 5.35969 18.4213C5.93508 18.0389 6.60349 17.7986 7.30349 17.7225C7.75577 17.7101 8.20065 17.8324 8.57458 18.0719C10.1337 18.8859 11.6928 19.7174 13.2315 20.6047C13.5988 20.7855 13.9114 21.0507 14.1402 21.3757C14.3689 21.7007 14.5064 22.0749 14.5398 22.4633V22.4633Z" fill="#F1E7FF"/>
<path id="Path 638" d="M68.2911 24.5633C67.7132 24.2017 66.8658 23.9484 66.6558 23.4418C66.537 22.7645 66.5892 22.0704 66.8082 21.4156C66.8306 21.3267 66.8732 21.2435 66.9332 21.1717C66.9932 21.0999 67.0692 21.0412 67.1557 20.9998C69.2352 19.8958 71.2738 18.7377 73.4108 17.7613C73.8166 17.5951 74.2743 17.5792 74.692 17.7169C75.1097 17.8546 75.4566 18.1356 75.6631 18.5036C75.9051 18.8324 76.0149 19.2313 75.9726 19.6291C75.9304 20.0269 75.739 20.3976 75.4327 20.6749C73.5484 22.2921 71.3362 23.535 68.9286 24.3292C68.7705 24.3609 68.6087 24.3732 68.4472 24.3659C68.3806 24.4203 68.3274 24.4876 68.2911 24.5633V24.5633Z" fill="#F1E7FF"/>
<path id="Path 639" d="M54.6309 11.2343C54.7313 10.7674 54.8858 10.3123 55.0917 9.87705C55.9001 8.47962 56.7642 7.1276 57.6135 5.73366C57.6525 5.67951 57.6711 5.62535 57.7101 5.5712C58.0027 5.10217 58.4647 4.74742 59.0121 4.57144C59.5594 4.39546 60.1557 4.40993 60.6927 4.61222C60.9277 4.74524 61.1326 4.92048 61.2956 5.12793C61.4586 5.33539 61.5765 5.57099 61.6426 5.82128C61.7086 6.07158 61.7216 6.33165 61.6808 6.58666C61.6399 6.84168 61.546 7.08663 61.4044 7.30752C60.5326 9.00853 59.5224 10.6437 58.3828 12.1985C58.2174 12.4774 57.9789 12.712 57.69 12.8799C57.4011 13.0479 57.0713 13.1437 56.7319 13.1582C56.3926 13.1727 56.0549 13.1055 55.7509 12.9629C55.447 12.8203 55.1868 12.6071 54.9951 12.3435C54.8282 11.9884 54.706 11.6161 54.6309 11.2343V11.2343Z" fill="#F1E7FF"/>
<path id="Path 640" d="M24.5287 13.1122C24.0439 13.1383 23.5616 13.0307 23.141 12.8026C22.7204 12.5745 22.3798 12.2358 22.1612 11.8283C21.2952 10.4903 20.4887 9.13301 19.6785 7.75828C19.5217 7.49984 19.4112 7.21893 19.3514 6.9268C19.1984 6.50827 19.2007 6.05337 19.3579 5.63623C19.5152 5.21909 19.8181 4.86433 20.2174 4.62977C20.6538 4.42227 21.1554 4.37021 21.6295 4.48323C22.1036 4.59625 22.5182 4.8667 22.7967 5.24464C23.6667 6.39605 24.4575 7.59856 25.1642 8.84479C25.5801 9.51362 25.9161 10.2236 26.1659 10.9619C26.2498 11.2066 26.2716 11.4663 26.2295 11.7203C26.1874 11.9743 26.0825 12.2155 25.9234 12.4246C25.7642 12.6336 25.5551 12.8047 25.3129 12.9241C25.0707 13.0436 24.8021 13.108 24.5287 13.1122V13.1122Z" fill="#F1E7FF"/>
<path id="Path 641" d="M41.3885 83.8846L36.6646 83.8846C35.6054 83.8846 35.1445 83.5212 35.1055 82.709C35.0669 82.5206 35.076 82.3264 35.132 82.142C35.188 81.9575 35.2894 81.7881 35.428 81.6473C35.5666 81.5065 35.7384 81.3983 35.9297 81.3315C36.1209 81.2647 36.3262 81.2411 36.529 81.2626C39.8201 81.226 43.1298 81.226 46.4413 81.2452C46.8292 81.2613 47.1975 81.4098 47.4773 81.6629C47.7571 81.9159 47.9292 82.2562 47.9614 82.6199C47.9463 82.8086 47.8902 82.9923 47.7966 83.1598C47.703 83.3273 47.5738 83.475 47.417 83.5937C47.2603 83.7124 47.0793 83.7996 46.8852 83.8499C46.6912 83.9003 46.4882 83.9127 46.2889 83.8863L41.3885 83.8846Z" fill="#F1E7FF"/>
<path id="Path 642" d="M75.817 35.8893C76.6254 35.8893 77.4134 35.8719 78.2217 35.8893C78.7532 35.8596 79.2782 36.0118 79.6994 36.3179C80.1207 36.6239 80.4097 37.0631 80.513 37.554C80.5252 37.7838 80.4873 38.0136 80.4016 38.2291C80.3159 38.4446 80.1843 38.6415 80.0148 38.8075C79.8454 38.9735 79.6416 39.1052 79.416 39.1946C79.1904 39.2839 78.9478 39.329 78.703 39.327C76.7678 39.4685 74.8233 39.4562 72.8902 39.2903C72.6536 39.2819 72.4214 39.227 72.2087 39.1292C71.996 39.0313 71.8075 38.8927 71.6552 38.7223C71.5029 38.5518 71.3903 38.3533 71.3245 38.1394C71.2588 37.9256 71.2414 37.7012 71.2734 37.4807C71.3731 37.0358 71.6287 36.6353 71.9994 36.3433C72.37 36.0512 72.8342 35.8846 73.3176 35.8701C74.1613 35.8701 74.9901 35.8893 75.817 35.8893Z" fill="#F1E7FF"/>
<path id="Path 643" d="M5.08911 35.887C5.85845 35.887 6.62965 35.8695 7.39899 35.887C7.93185 35.8738 8.45278 36.0366 8.8711 36.3472C9.28941 36.6577 9.57864 37.0963 9.68845 37.5866C9.68553 38.0463 9.48997 38.4863 9.14419 38.8113C8.79841 39.1364 8.33028 39.3202 7.84129 39.3229C5.93795 39.4554 4.02632 39.4432 2.12508 39.2862C1.88088 39.293 1.63823 39.2477 1.41525 39.1539C1.19228 39.0601 0.99477 38.92 0.837492 38.7443C0.680215 38.5686 0.567236 38.3617 0.50702 38.1391C0.446804 37.9166 0.440912 37.6841 0.489766 37.4591C0.546548 37.0208 0.775439 36.6182 1.13158 36.3303C1.48773 36.0424 1.94543 35.8899 2.41498 35.9027C3.28096 35.8486 4.18596 35.9027 5.09097 35.8852L5.08911 35.887Z" fill="#F1E7FF"/>
<path id="Path 644" d="M38.4844 3.94174C38.581 3.24302 38.6386 2.15127 38.869 1.11891C38.9504 0.775301 39.1698 0.474502 39.4814 0.279233C39.793 0.0839643 40.1728 0.00930545 40.5415 0.0708394C40.9118 0.0728145 41.2707 0.191672 41.5605 0.408345C41.8503 0.625018 42.0543 0.926938 42.1397 1.26564C42.2713 1.60234 42.349 1.95556 42.3701 2.31372C42.3515 3.92426 42.3515 5.55227 42.1973 7.16282C42.1616 7.57489 41.9649 7.95996 41.6451 8.24379C41.3253 8.52763 40.9051 8.69014 40.4653 8.7C40.0276 8.68771 39.6094 8.52713 39.2877 8.24786C38.966 7.96859 38.7626 7.58945 38.7148 7.18029C38.5748 6.10557 38.4979 5.02442 38.4844 3.94174Z" fill="#F1E7FF"/>
<path id="Path 645" d="M62.9807 86.9018L68.9478 86.9018C68.9664 87.335 68.9868 87.6983 69.0259 88.1682L61.3398 88.1682L61.3398 77.0254L62.9752 77.0254L62.9807 86.9018Z" fill="#F1E7FF"/>
<path id="Path 646" d="M59.7537 86.7885L59.7537 88.1091L52.1513 88.1091C52.1032 87.9249 52.0709 87.7374 52.0547 87.5484L52.0547 77.6161C52.0547 76.2955 53.0935 77.092 53.7681 76.8388L53.7681 86.7955L59.7537 86.7885Z" fill="#F1E7FF"/>
<path id="Path 647" d="M46.3145 100.851C46.6602 99.5117 47.0077 98.1911 47.3552 96.8531C47.5652 96.0565 47.5856 96.0566 48.643 96.2557C48.4571 96.9247 48.2713 97.5763 48.1041 98.2261C47.7324 99.5292 47.4109 100.846 47.0076 102.134C46.9296 102.404 46.5449 102.785 46.3145 102.768C46.1328 102.739 45.961 102.67 45.8136 102.566C45.6661 102.462 45.5474 102.326 45.4671 102.17C45.0639 101.066 44.774 99.9275 44.4283 98.806C44.3521 98.516 44.2165 98.2453 44.0436 97.7579C43.5809 99.33 43.1962 100.689 42.7725 102.045C42.6573 102.443 42.5997 102.841 41.9456 102.841C41.2915 102.841 41.2524 102.425 41.1372 102.045C40.5983 100.123 40.078 98.2278 39.5391 96.2802C40.3084 95.9308 40.7321 96.1177 40.8863 96.8968C41.1744 98.2173 41.5014 99.5169 41.8155 100.822C41.8917 100.822 41.9883 100.839 42.0664 100.839C42.4511 99.5012 42.8357 98.1632 43.2594 96.8426C43.3356 96.5893 43.5103 96.2103 43.7221 96.1544C44.222 96.0269 44.7033 96.0461 44.8762 96.7169C45.2218 98.1143 45.6659 99.4663 46.0506 100.839C46.138 100.851 46.2263 100.855 46.3145 100.851V100.851Z" fill="#F1E7FF"/>
<path id="Path 648" d="M41.369 87.7694C40.254 87.7694 39.139 87.7886 38.024 87.7694C37.8325 87.7812 37.6404 87.7566 37.4592 87.697C37.278 87.6374 37.1115 87.5441 36.9695 87.4226C36.8276 87.3011 36.7132 87.1539 36.6332 86.9899C36.5532 86.8259 36.5092 86.6484 36.5039 86.468C36.5274 86.1029 36.6974 85.7598 36.9795 85.5079C37.2616 85.256 37.6349 85.1141 38.024 85.1108C40.3525 85.0933 42.7014 85.0933 45.0299 85.1108C45.2229 85.1045 45.4151 85.136 45.5946 85.2031C45.774 85.2702 45.9367 85.3715 46.0723 85.5007C46.208 85.6299 46.3137 85.7841 46.3828 85.9536C46.4519 86.1231 46.4829 86.3042 46.4738 86.4855C46.4659 86.666 46.4193 86.8432 46.3369 87.0064C46.2545 87.1696 46.1378 87.3155 45.994 87.4354C45.8502 87.5553 45.6821 87.6466 45.4998 87.704C45.3176 87.7614 45.1249 87.7836 44.9333 87.7694L41.369 87.7694Z" fill="#F1E7FF"/>
<path id="Path 649" d="M31.2256 98.2667C30.8311 98.1002 30.4722 97.8676 30.1663 97.5803C29.9721 97.3426 29.725 97.1476 29.4423 97.0089C29.1596 96.8702 28.8482 96.7912 28.5296 96.7774C28.2111 96.7636 27.8932 96.8154 27.5982 96.929C27.3031 97.0426 27.038 97.2154 26.8213 97.4353C26.3777 97.9913 26.1238 98.6607 26.093 99.3551C26.0621 100.05 26.2558 100.736 26.6485 101.325C26.9376 101.67 27.3332 101.923 27.7811 102.048C28.229 102.173 28.7072 102.165 29.1498 102.024C29.5752 101.937 29.9479 101.698 30.1887 101.357C30.4295 101.017 30.5195 100.601 30.4395 100.199C28.3953 99.8354 28.3953 99.8353 28.4567 99.203C29.3041 99.203 30.17 99.1663 31.0174 99.2222C31.1499 99.2563 31.2717 99.32 31.3724 99.4079C31.473 99.4958 31.5495 99.6053 31.5954 99.727C31.653 100.723 31.6139 101.699 31.6139 102.911C31.1326 102.695 30.787 102.531 30.4599 102.387C30.062 102.675 29.6014 102.876 29.111 102.977C28.6205 103.078 28.1125 103.075 27.6232 102.97C27.134 102.864 26.6756 102.658 26.2809 102.367C25.8862 102.075 25.565 101.705 25.3402 101.283C25.0888 100.831 24.936 100.336 24.891 99.8272C24.846 99.3185 24.9095 98.8065 25.078 98.3213C25.2464 97.836 25.5164 97.3872 25.8719 97.0014C26.2275 96.6156 26.6614 96.3005 27.1484 96.0745C27.556 95.8951 28.0007 95.8026 28.4508 95.8037C28.9008 95.8048 29.345 95.8996 29.7516 96.081C30.1581 96.2625 30.5169 96.5263 30.8023 96.8534C31.0876 97.1806 31.2925 97.563 31.4021 97.9733C31.3508 98.075 31.2918 98.173 31.2256 98.2667V98.2667Z" fill="#F1E7FF"/>
<path id="Path 650" d="M61.6552 102.77L60.5774 102.77C60.5774 101.992 60.5588 101.232 60.5774 100.49C60.6164 99.8926 60.347 99.6586 59.7319 99.7302L59.6352 99.7302C57.0745 99.676 57.0931 99.676 56.9983 102.064C56.9797 102.317 56.6712 102.57 56.4984 102.824C56.3126 102.59 55.9595 102.336 55.9595 102.101C55.9205 100.146 55.9409 98.193 55.9409 96.275C56.7102 96.0043 57.0187 96.13 57.0373 96.8358C57.1339 98.862 57.1525 98.862 59.3082 98.862L60.5793 98.862C60.5793 98.1756 60.5997 97.5781 60.5793 96.9807C60.5421 96.2576 60.8301 95.9676 61.6571 96.2209L61.6552 102.77Z" fill="#F1E7FF"/>
<path id="Path 651" d="M37.5969 96.1602L38.8104 96.1602C38.7137 97.9314 38.7323 99.6695 38.4647 101.388C38.2789 102.672 36.7922 103.233 34.9618 102.997C34.3979 102.929 33.8817 102.664 33.5147 102.256C33.1477 101.848 32.9566 101.325 32.979 100.791C32.9604 99.252 32.979 97.734 32.979 96.1602L34.1181 96.1602C34.1181 97.6432 34.0995 99.1087 34.1181 100.573C34.1034 100.86 34.1757 101.146 34.3266 101.397C34.4774 101.647 34.7007 101.853 34.9705 101.989C35.2404 102.125 35.5458 102.187 35.8514 102.167C36.157 102.147 36.4503 102.046 36.6975 101.876C37.2117 101.418 37.5213 100.793 37.5634 100.129C37.6917 98.8432 37.5969 97.5401 37.5969 96.1602Z" fill="#F1E7FF"/>
<path id="Path 652" d="M55.1906 102.679C54.2856 102.986 53.8898 102.733 53.7281 101.98C53.5943 101.346 53.3248 100.787 52.4013 100.895C51.5334 100.986 50.476 100.569 50.2456 101.889C50.1099 102.576 49.7847 103.102 48.7812 102.703C49.6101 100.679 50.4184 98.6333 51.2844 96.607C51.3702 96.4855 51.4838 96.3835 51.6169 96.3085C51.75 96.2336 51.8993 96.1876 52.0537 96.1738C52.1993 96.1763 52.342 96.2123 52.4694 96.2787C52.5967 96.3451 52.7048 96.4399 52.7841 96.5546C53.6333 98.5722 54.4027 100.616 55.1906 102.679ZM51.0149 99.9469L52.9978 99.9469C52.6707 99.0962 52.4013 98.3748 52.1114 97.6673C52.0402 97.6636 51.9689 97.6695 51.8995 97.6848C51.6115 98.408 51.3234 99.1154 51.0149 99.9469Z" fill="#F1E7FF"/>
<path id="Path 653" d="M68.8721 102.68C67.943 102.987 67.5843 102.716 67.4096 102.011C67.313 101.63 67.0621 101.034 66.7927 100.998C66.011 100.853 65.2069 100.853 64.4252 100.998C64.1743 101.052 63.9643 101.667 63.8677 102.065C63.6818 102.788 63.2303 102.97 62.4609 102.697C63.2897 100.636 64.1167 98.5922 64.9641 96.5642C65.0419 96.4491 65.1463 96.352 65.2695 96.28C65.3927 96.208 65.5316 96.1631 65.6758 96.1484C65.8224 96.1419 65.9685 96.1681 66.1022 96.2249C66.236 96.2817 66.3535 96.3674 66.4452 96.4751C67.2758 98.5188 68.0452 100.58 68.8721 102.68ZM66.6942 100.009C66.3467 99.1354 66.0401 98.4367 65.7502 97.7118C65.6729 97.7091 65.5955 97.7149 65.5197 97.7293C65.2503 98.4525 64.9808 99.1774 64.6723 100.009L66.6942 100.009Z" fill="#F1E7FF"/>
<path id="Path 654" d="M21.6781 96.112C22.0052 96.8351 21.6391 96.9627 21.063 96.9854C19.4649 97.0395 19.4649 97.0587 19.4649 98.5575C19.4649 99.6981 19.4258 100.837 19.4834 101.995C19.5225 102.755 19.214 102.972 18.3684 102.694C18.3684 101.193 18.3294 99.6545 18.387 98.1348C18.4261 97.3033 18.2142 96.9242 17.233 96.9592C16.8093 96.9766 16.0195 96.6692 16.0195 96.5434C16.0771 95.7643 16.7889 96.1452 17.2126 96.1277C18.6955 96.0928 20.1952 96.112 21.6781 96.112Z" fill="#F1E7FF"/>
<path id="Path 655" d="M72.4717 102.715C71.509 102.986 71.2972 102.642 71.3176 101.936C71.3567 100.561 71.2972 99.169 71.3362 97.7943C71.3567 97.1428 71.0872 96.9209 70.4312 96.9803C70.0848 97.0136 69.7352 97.0012 69.3924 96.9436C69.3029 96.911 69.2239 96.8572 69.163 96.7874C69.1021 96.7176 69.0615 96.6343 69.0449 96.5454C69.0449 96.4178 69.2772 96.1663 69.4166 96.1663C71.1089 96.1477 72.8024 96.1477 74.4972 96.1663C74.6124 96.1663 74.8447 96.3829 74.8243 96.4912C74.8083 96.5848 74.7728 96.6744 74.7199 96.7551C74.667 96.8357 74.5976 96.9057 74.5158 96.9611C74.3802 97.0519 74.1441 96.9978 73.9583 97.017C72.4717 97.0712 72.4717 97.0711 72.4717 98.5175L72.4717 102.715Z" fill="#F1E7FF"/>
<path id="Path 656" d="M14 96.1602L14.9812 96.1602L14.9812 102.763C14.6541 102.781 14.3661 102.8 14 102.817L14 96.1602Z" fill="#F1E7FF"/>
<path id="Path 657" d="M76.8015 102.771L75.8203 102.771L75.8203 96.2031C76.1288 96.1857 76.4373 96.149 76.8015 96.1123L76.8015 102.771Z" fill="#F1E7FF"/>
<path id="Path 658" d="M11.2275 96.1602L12.3629 96.1602L12.3629 99.8494C12.3629 100.665 12.4019 101.479 12.3443 102.274C12.3257 102.449 11.9987 102.637 11.8054 102.817C11.6196 102.643 11.2665 102.456 11.2665 102.274C11.2089 100.272 11.2275 98.2563 11.2275 96.1602Z" fill="#F1E7FF"/>
</g>
</svg>
