<svg width="43" height="43" viewBox="0 0 43 43" fill="none" xmlns="http://www.w3.org/2000/svg">
<g clip-path="url(#clip0_2001_683)">
<path d="M21.3133 0.450195C9.65627 0.450195 0.205078 9.90138 0.205078 21.5584C0.205078 32.1406 8.00103 40.8794 18.1576 42.4062V27.152H12.9351V21.6041H18.1576V17.9119C18.1576 11.7994 21.1356 9.11686 26.2156 9.11686C28.6484 9.11686 29.9359 9.29804 30.5446 9.37896V14.2215H27.0793C24.9228 14.2215 24.1699 16.2673 24.1699 18.5716V21.6041H30.49L29.6334 27.152H24.1699V42.4502C34.4724 41.0535 42.4214 32.2444 42.4214 21.5584C42.4214 9.90138 32.9702 0.450195 21.3133 0.450195Z" fill="#F1E7FF"/>
</g>
<defs>
<clipPath id="clip0_2001_683">
<rect width="42" height="42" fill="white" transform="translate(0.228516 0.450195)"/>
</clipPath>
</defs>
</svg>
