<svg width="261" height="27" viewBox="0 0 261 27" fill="none" xmlns="http://www.w3.org/2000/svg">
<path d="M0.265351 25.6641C0.169081 25.3632 0.379689 25.0624 0.770788 24.924C80.2843 -1.48423 177.121 -7.94638 259.57 15.2488C260.028 15.3812 260.298 15.7181 260.232 16.0611C260.176 16.194 260.074 16.3023 259.945 16.3664C259.816 16.4304 259.668 16.4459 259.528 16.4101C174.455 2.70354 82.4023 0.73001 1.05959 25.9529C0.914633 26.0086 0.754425 26.0101 0.608467 25.957C0.462509 25.904 0.340636 25.7999 0.265351 25.6641Z" fill="#C15A47"/>
<path d="M60.5787 22.7581C105.706 11.5968 175.297 11.0913 220.659 22.012C221.489 22.2106 221.152 23.1011 220.292 22.9747C173.962 16.1516 107.108 16.6028 60.9518 23.7208C60.0914 23.8532 59.7484 22.9627 60.5787 22.7581Z" fill="#C15A47"/>
<path d="M229.425 23.0661C232.561 23.1247 235.665 23.7189 238.601 24.823C239.991 25.3585 239.431 26.8627 237.849 26.8266C234.706 26.7736 231.596 26.1793 228.655 25.0697C227.283 24.5342 227.849 23.03 229.425 23.0661Z" fill="#C15A47"/>
</svg>
