<svg width="44" height="44" viewBox="0 0 44 44" fill="none" xmlns="http://www.w3.org/2000/svg">
<path d="M13.1298 1.4502C6.28807 1.4502 0.720703 7.01757 0.720703 13.8593V31.0411C0.720703 37.8828 6.28807 43.4502 13.1298 43.4502H30.3116C37.1533 43.4502 42.7207 37.8828 42.7207 31.0411V13.8593C42.7207 7.01757 37.1533 1.4502 30.3116 1.4502H13.1298ZM13.1298 3.83156H30.3116C36.1214 3.83156 40.8116 8.04946 40.8116 13.8593V31.0411C40.8116 36.8509 36.1214 41.0164 30.3116 41.0164H13.1298C7.31997 41.0164 2.99712 36.8509 2.99712 31.0411V13.8593C2.99712 8.04946 7.31997 3.83156 13.1298 3.83156ZM33.1752 9.08656C32.6689 9.08656 32.1833 9.28769 31.8253 9.64572C31.4673 10.0037 31.2662 10.4893 31.2662 10.9956C31.2662 11.502 31.4673 11.9876 31.8253 12.3456C32.1833 12.7036 32.6689 12.9047 33.1752 12.9047C33.6816 12.9047 34.1672 12.7036 34.5252 12.3456C34.8832 11.9876 35.0843 11.502 35.0843 10.9956C35.0843 10.4893 34.8832 10.0037 34.5252 9.64572C34.1672 9.28769 33.6816 9.08656 33.1752 9.08656ZM21.7207 11.9502C15.933 11.9502 11.2207 16.6625 11.2207 22.4502C11.2207 28.2379 15.933 32.9502 21.7207 32.9502C27.5084 32.9502 32.2207 28.2379 32.2207 22.4502C32.2207 16.6625 27.5084 11.9502 21.7207 11.9502ZM21.7207 13.8593C26.4766 13.8593 30.3116 17.6943 30.3116 22.4502C30.3116 27.2061 26.4766 31.0411 21.7207 31.0411C16.9648 31.0411 13.1298 27.2061 13.1298 22.4502C13.1298 17.6943 16.9648 13.8593 21.7207 13.8593Z" fill="#F1E7FF" stroke="#F1E7FF"/>
</svg>
