<svg width="43" height="43" viewBox="0 0 43 43" fill="none" xmlns="http://www.w3.org/2000/svg">
<path d="M37.707 0.450195H5.70703C2.94703 0.450195 0.707031 2.6902 0.707031 5.4502V37.4502C0.707031 40.2102 2.94703 42.4502 5.70703 42.4502H37.707C40.467 42.4502 42.707 40.2102 42.707 37.4502V5.4502C42.707 2.6902 40.467 0.450195 37.707 0.450195ZM13.707 16.4502V35.4502H7.70703V16.4502H13.707ZM7.70703 10.9202C7.70703 9.5202 8.90703 8.4502 10.707 8.4502C12.507 8.4502 13.637 9.5202 13.707 10.9202C13.707 12.3202 12.587 13.4502 10.707 13.4502C8.90703 13.4502 7.70703 12.3202 7.70703 10.9202ZM35.707 35.4502H29.707C29.707 35.4502 29.707 26.1902 29.707 25.4502C29.707 23.4502 28.707 21.4502 26.207 21.4102H26.127C23.707 21.4102 22.707 23.4702 22.707 25.4502C22.707 26.3602 22.707 35.4502 22.707 35.4502H16.707V16.4502H22.707V19.0102C22.707 19.0102 24.637 16.4502 28.517 16.4502C32.487 16.4502 35.707 19.1802 35.707 24.7102V35.4502Z" fill="#F1E7FF"/>
</svg>
