<svg width="43" height="43" viewBox="0 0 43 43" fill="none" xmlns="http://www.w3.org/2000/svg">
<g clip-path="url(#clip0_2001_680)">
<path d="M7.21482 0.450195C3.34883 0.450195 0.214844 3.58418 0.214844 7.45017V35.4501C0.214844 39.3161 3.34883 42.4501 7.21482 42.4501H35.2147C39.0807 42.4501 42.2147 39.3161 42.2147 35.4501V7.45017C42.2147 3.58418 39.0807 0.450195 35.2147 0.450195H7.21482ZM9.30075 9.45017H17.2382L22.8749 17.4599L29.7147 9.45017H32.2147L24.0038 19.0634L34.1288 33.4501H26.1933L19.6523 24.1571L11.7148 33.4501H9.21481L18.5234 22.5536L9.30075 9.45017ZM13.1289 11.4502L27.2362 31.4501H30.3007L16.1933 11.4502H13.1289Z" fill="#F1E7FF"/>
</g>
<defs>
<clipPath id="clip0_2001_680">
<rect width="42" height="42" fill="white" transform="translate(0.214844 0.450195)"/>
</clipPath>
</defs>
</svg>
