<svg width="160" height="281" viewBox="0 0 160 281" fill="none" xmlns="http://www.w3.org/2000/svg">
<path d="M49.3814 81.2639V160.799C49.3814 183.568 58.4043 205.404 74.465 221.505C90.5258 237.605 112.309 246.65 135.022 246.65V246.65C157.732 246.644 179.509 237.596 195.565 221.497C211.621 205.397 220.641 183.564 220.641 160.799V34.249" stroke="#EE875E" stroke-width="3.2" stroke-miterlimit="10"/>
<path d="M132.161 228.724C155.627 228.724 178.132 219.379 194.725 202.745C211.319 186.112 220.641 163.551 220.641 140.027" stroke="#EE875E" stroke-width="3.2" stroke-miterlimit="10"/>
<path d="M132.161 211.097C155.627 211.097 178.132 201.752 194.725 185.118C211.319 168.485 220.641 145.924 220.641 122.4" stroke="#EE875E" stroke-width="3.2" stroke-miterlimit="10"/>
<path d="M132.161 193.465C155.627 193.465 178.132 184.12 194.725 167.487C211.319 150.853 220.641 128.292 220.641 104.769" stroke="#EE875E" stroke-width="3.2" stroke-miterlimit="10"/>
<path d="M132.161 175.809C155.627 175.809 178.132 166.464 194.725 149.83C211.319 133.196 220.641 110.636 220.641 87.1123" stroke="#EE875E" stroke-width="3.2" stroke-miterlimit="10"/>
<path d="M132.161 159.726C155.627 159.726 178.132 150.381 194.725 133.747C211.319 117.113 220.641 94.5531 220.641 71.0293" stroke="#EE875E" stroke-width="3.2" stroke-miterlimit="10"/>
<path d="M132.161 140.566C155.627 140.566 178.132 131.221 194.725 114.587C211.319 97.9533 220.641 75.393 220.641 51.8691" stroke="#EE875E" stroke-width="3.2" stroke-miterlimit="10"/>
<path d="M132.161 122.94C155.627 122.94 178.132 113.595 194.725 96.9612C211.319 80.3274 220.641 57.767 220.641 34.2432" stroke="#EE875E" stroke-width="3.2" stroke-miterlimit="10"/>
<path d="M77.3299 199.55L117.387 176.365V222.735L77.3299 199.55Z" fill="#D6B9FC"/>
<path d="M77.3299 153.181L117.387 129.996V176.365L77.3299 153.181Z" fill="#D6B9FC"/>
<path d="M77.3299 106.805L117.387 83.6201V129.995L77.3299 106.805Z" fill="#D6B9FC"/>
<path d="M77.3299 60.4356L117.387 37.251V83.6203L77.3299 60.4356Z" fill="#D6B9FC"/>
</svg>
